<?xml version="1.0" encoding="UTF-8"?>
<svg width="23px" height="24px" viewBox="0 0 23 24" version="1.1" xmlns="http://www.w3.org/2000/svg" xmlns:xlink="http://www.w3.org/1999/xlink">
    <!-- Generator: Sketch 39.1 (31720) - http://www.bohemiancoding.com/sketch -->
    <title>Shape</title>
    <desc>Created with Sketch.</desc>
    <defs></defs>
    <g id="Page-1" stroke="none" stroke-width="1" fill="none" fill-rule="evenodd">
        <g id="ms-icon-linkedin" fill="#000CA0">
            <g id="Page-1">
                <path d="M21.297,0.89 L1.697,0.89 C0.761,0.89 0,1.632 0,2.548 L0,22.23 C0,23.146 0.761,23.89 1.697,23.89 L21.297,23.89 C22.236,23.89 23,23.146 23,22.23 L23,2.548 C23,1.632 22.236,0.89 21.297,0.89 L21.297,0.89 L21.297,0.89 Z M6.821,20.489 L3.41,20.489 L3.41,9.513 L6.821,9.513 L6.821,20.489 L6.821,20.489 L6.821,20.489 Z M5.116,8.012 C4.023,8.012 3.138,7.125 3.138,6.034 C3.138,4.943 4.023,4.056 5.116,4.056 C6.207,4.056 7.093,4.943 7.093,6.034 C7.093,7.125 6.207,8.012 5.116,8.012 L5.116,8.012 L5.116,8.012 Z M19.599,20.489 L16.19,20.489 L16.19,15.151 C16.19,13.878 16.166,12.24 14.417,12.24 C12.642,12.24 12.37,13.627 12.37,15.059 L12.37,20.489 L8.961,20.489 L8.961,9.513 L12.233,9.513 L12.233,11.012 L12.279,11.012 C12.734,10.149 13.847,9.24 15.506,9.24 C18.961,9.24 19.599,11.513 19.599,14.468 L19.599,20.489 L19.599,20.489 L19.599,20.489 Z" id="Shape"></path>
            </g>
        </g>
    </g>
</svg>