<?xml version="1.0" encoding="UTF-8"?>
<svg width="16px" height="12px" viewBox="0 0 16 12" version="1.1" xmlns="http://www.w3.org/2000/svg" xmlns:xlink="http://www.w3.org/1999/xlink">
    <!-- Generator: Sketch 39.1 (31720) - http://www.bohemiancoding.com/sketch -->
    <title>Shape</title>
    <desc>Created with Sketch.</desc>
    <defs></defs>
    <g id="Page-1" stroke="none" stroke-width="1" fill="none" fill-rule="evenodd">
        <g id="1484652093_contact" fill="#FFFFFF">
            <path d="M8,8 C7.734,8 7.5,7.906 7,7.664 L0,4 L0,11 C0,11.55 0.45,12 1,12 L15,12 C15.55,12 16,11.55 16,11 L16,4 L9,7.664 C8.5,7.906 8.266,8 8,8 L8,8 Z M15,0 L1,0 C0.45,0 0,0.45 0,1 L0,1.758 L8,5.963 L16,1.758 L16,1 C16,0.45 15.55,0 15,0 L15,0 Z" id="Shape"></path>
        </g>
    </g>
</svg>