<?xml version="1.0" encoding="UTF-8"?>
<svg width="23px" height="24px" viewBox="0 0 23 24" version="1.1" xmlns="http://www.w3.org/2000/svg" xmlns:xlink="http://www.w3.org/1999/xlink">
    <!-- Generator: Sketch 39.1 (31720) - http://www.bohemiancoding.com/sketch -->
    <title>Shape</title>
    <desc>Created with Sketch.</desc>
    <defs></defs>
    <g id="Page-1" stroke="none" stroke-width="1" fill="none" fill-rule="evenodd">
        <g id="ms-icon-twitter" fill="#000CA0">
            <g id="Page-1">
                <path d="M0,0.89 L0,23.89 L23,23.89 L23,0.89 L0,0.89 L0,0.89 L0,0.89 Z M17.216,9.458 C17.222,9.585 17.225,9.712 17.225,9.84 C17.225,13.737 14.258,18.231 8.833,18.231 C7.168,18.231 5.618,17.743 4.312,16.906 C4.543,16.934 4.778,16.947 5.016,16.947 C6.398,16.947 7.669,16.476 8.679,15.685 C7.388,15.661 6.299,14.808 5.924,13.636 C6.103,13.671 6.288,13.69 6.478,13.69 C6.747,13.69 7.008,13.653 7.256,13.586 C5.906,13.315 4.89,12.123 4.89,10.695 L4.89,10.657 C5.288,10.878 5.742,11.011 6.226,11.026 C5.434,10.497 4.914,9.594 4.914,8.571 C4.914,8.031 5.06,7.524 5.313,7.089 C6.767,8.873 8.941,10.047 11.392,10.17 C11.341,9.954 11.315,9.729 11.315,9.497 C11.315,7.869 12.636,6.548 14.265,6.548 C15.113,6.548 15.88,6.907 16.418,7.48 C17.09,7.348 17.721,7.102 18.291,6.764 C18.07,7.453 17.603,8.031 16.994,8.396 C17.59,8.324 18.159,8.166 18.688,7.932 C18.293,8.523 17.792,9.042 17.216,9.458 L17.216,9.458 L17.216,9.458 Z" id="Shape"></path>
            </g>
        </g>
    </g>
</svg>