<?xml version="1.0" encoding="UTF-8"?>
<svg width="23px" height="24px" viewBox="0 0 23 24" version="1.1" xmlns="http://www.w3.org/2000/svg" xmlns:xlink="http://www.w3.org/1999/xlink">
    <!-- Generator: Sketch 39.1 (31720) - http://www.bohemiancoding.com/sketch -->
    <title>Group</title>
    <desc>Created with Sketch.</desc>
    <defs></defs>
    <g id="Page-1" stroke="none" stroke-width="1" fill="none" fill-rule="evenodd">
        <g id="Group" fill="#FFFFFF">
            <path d="M11.5,2.962 C14.571,2.962 14.934,2.974 16.147,3.029 C17.268,3.08 17.877,3.267 18.282,3.425 C18.819,3.633 19.202,3.883 19.605,4.285 C20.007,4.688 20.256,5.071 20.465,5.607 C20.622,6.013 20.81,6.622 20.861,7.743 C20.916,8.955 20.928,9.319 20.928,12.39 C20.928,15.46 20.916,15.824 20.861,17.037 C20.81,18.158 20.622,18.767 20.465,19.172 C20.256,19.709 20.007,20.092 19.605,20.494 C19.202,20.897 18.819,21.146 18.282,21.354 C17.877,21.512 17.268,21.699 16.147,21.751 C14.935,21.806 14.571,21.818 11.5,21.818 C8.429,21.818 8.065,21.806 6.853,21.751 C5.732,21.699 5.123,21.512 4.718,21.354 C4.181,21.146 3.798,20.897 3.395,20.494 C2.993,20.092 2.744,19.709 2.535,19.172 C2.378,18.767 2.19,18.158 2.139,17.037 C2.084,15.824 2.072,15.46 2.072,12.39 C2.072,9.319 2.084,8.955 2.139,7.743 C2.19,6.622 2.378,6.013 2.535,5.607 C2.744,5.071 2.993,4.688 3.395,4.285 C3.798,3.883 4.181,3.633 4.718,3.425 C5.123,3.267 5.732,3.08 6.853,3.029 C8.066,2.974 8.429,2.962 11.5,2.962 L11.5,2.962 Z M11.5,0.89 C8.377,0.89 7.985,0.903 6.759,0.959 C5.535,1.015 4.699,1.209 3.967,1.494 C3.211,1.787 2.57,2.181 1.93,2.82 C1.291,3.459 0.898,4.101 0.604,4.857 C0.32,5.588 0.125,6.424 0.069,7.648 C0.013,8.875 0,9.266 0,12.39 C0,15.513 0.013,15.905 0.069,17.131 C0.125,18.355 0.32,19.191 0.604,19.923 C0.898,20.679 1.291,21.32 1.93,21.96 C2.57,22.599 3.211,22.992 3.967,23.286 C4.699,23.57 5.535,23.765 6.759,23.821 C7.985,23.877 8.377,23.89 11.5,23.89 C14.623,23.89 15.015,23.877 16.241,23.821 C17.465,23.765 18.301,23.57 19.033,23.286 C19.789,22.992 20.43,22.599 21.07,21.96 C21.709,21.32 22.102,20.679 22.396,19.923 C22.68,19.191 22.875,18.355 22.931,17.131 C22.987,15.905 23,15.513 23,12.39 C23,9.266 22.987,8.875 22.931,7.648 C22.875,6.424 22.68,5.588 22.396,4.857 C22.102,4.101 21.709,3.459 21.07,2.82 C20.43,2.181 19.789,1.787 19.033,1.494 C18.301,1.209 17.465,1.015 16.241,0.959 C15.015,0.903 14.623,0.89 11.5,0.89 L11.5,0.89 L11.5,0.89 Z" id="Shape"></path>
            <path d="M11.5,6.484 C8.239,6.484 5.595,9.128 5.595,12.39 C5.595,15.651 8.239,18.295 11.5,18.295 C14.761,18.295 17.405,15.651 17.405,12.39 C17.405,9.128 14.761,6.484 11.5,6.484 L11.5,6.484 Z M11.5,16.223 C9.383,16.223 7.667,14.507 7.667,12.39 C7.667,10.273 9.383,8.556 11.5,8.556 C13.617,8.556 15.333,10.273 15.333,12.39 C15.333,14.507 13.617,16.223 11.5,16.223 L11.5,16.223 Z" id="Shape"></path>
            <path d="M19.019,6.251 C19.019,7.013 18.401,7.631 17.639,7.631 C16.877,7.631 16.259,7.013 16.259,6.251 C16.259,5.489 16.877,4.871 17.639,4.871 C18.401,4.871 19.019,5.489 19.019,6.251 L19.019,6.251 Z" id="Shape"></path>
        </g>
    </g>
</svg>