<svg xmlns="http://www.w3.org/2000/svg" width="280.2" height="138.5">
	<path
		fill="#000ca0"
		d="M27.1 105.2h-1.4c-.5 0-1 .2-1.3.5-.3.3-.5.7-.5 1.3v4.1c0 .6.2 1 .5 1.3.3.3.7.5 1.3.5h1.4c.5 0 1-.2 1.3-.5.3-.3.5-.7.5-1.3v-.6c0-.1-.1-.2-.2-.2h-.5c-.1 0-.2.1-.2.2v.5c0 .7-.3 1-1 1h-1.2c-.7 0-1-.3-1-1v-4c0-.7.3-1 1-1H27c.7 0 1 .3 1 1v.5c0 .1.1.2.2.2h.5c.1 0 .2-.1.2-.2v-.5c0-.6-.2-1-.5-1.3-.4-.3-.8-.5-1.3-.5zM33 106.8h-1c-.5 0-1 .2-1.3.5-.3.3-.5.7-.5 1.3v2.5c0 .6.2 1 .5 1.3.3.3.7.5 1.3.5h1c.5 0 1-.2 1.3-.5.3-.3.5-.7.5-1.3v-2.5c0-.6-.2-1-.5-1.3-.3-.3-.8-.5-1.3-.5zm.9 4.3c0 .7-.3 1-1 1h-.8c-.7 0-1-.3-1-1v-2.5c0-.7.3-1 1-1h.8c.7 0 1 .3 1 1v2.5zM37 104.5h-.5c-.1 0-.2.1-.2.2v8c0 .1.1.2.2.2h.5c.1 0 .2-.1.2-.2v-8c0-.1-.1-.2-.2-.2zM39.7 104.5h-.5c-.1 0-.2.1-.2.2v8c0 .1.1.2.2.2h.5c.1 0 .2-.1.2-.2v-8c-.1-.1-.1-.2-.2-.2zM45.8 106.8h-2.6c-.5 0-1 .2-1.3.5-.3.3-.5.7-.5 1.3v2.5c0 .6.2 1 .5 1.3.3.3.7.5 1.3.5h.6c.6 0 1-.2 1.2-.6v.5c0 .1.1.2.2.2h.5c.1 0 .2-.1.2-.2V107c0-.1 0-.2-.1-.2zm-.7 4.2c0 .4-.1.6-.3.8-.2.2-.5.3-.8.3h-.7c-.7 0-1-.3-1-1v-2.5c0-.7.3-1 1-1H45c.1 0 .1 0 .1.1v3.3zM50.4 106.7h-.7c-.6 0-1 .2-1.2.6v-2.7c0-.1-.1-.2-.2-.2h-.5c-.1 0-.2.1-.2.2v8c0 .1.1.2.2.2h2.6c.5 0 1-.2 1.3-.5.3-.3.5-.7.5-1.3v-2.6c0-.5-.2-1-.5-1.3-.4-.2-.8-.4-1.3-.4zm.9 4.4c0 .7-.3 1-1 1h-1.7c-.1 0-.1 0-.1-.1v-3.4c0-.3.1-.6.3-.8.2-.2.5-.3.8-.3h.7c.7 0 1 .3 1 1v2.6zM56.3 106.8h-1c-.5 0-1 .2-1.3.5-.3.3-.5.7-.5 1.3v2.5c0 .6.2 1 .5 1.3.3.3.7.5 1.3.5h1c.5 0 1-.2 1.3-.5.3-.3.5-.7.5-1.3v-2.5c0-.6-.2-1-.5-1.3-.3-.3-.7-.5-1.3-.5zm.9 4.3c0 .7-.3 1-1 1h-.8c-.7 0-1-.3-1-1v-2.5c0-.7.3-1 1-1h.8c.7 0 1 .3 1 1v2.5zM62.2 106.8h-.5c-.3 0-.6.1-.8.2-.2.1-.4.3-.5.5v-.5c0-.1-.1-.2-.2-.2h-.5c-.1 0-.2.1-.2.2v5.7c0 .1.1.2.2.2h.5c.1 0 .2-.1.2-.2v-3.9c0-.4.1-.7.3-.9.2-.2.5-.3.8-.3h.7v-.6c.2-.1.1-.2 0-.2zM67.7 106.8h-2.6c-.5 0-1 .2-1.3.5-.3.3-.5.7-.5 1.3v2.5c0 .6.2 1 .5 1.3.3.3.7.5 1.3.5h.6c.6 0 1-.2 1.2-.6v.5c0 .1.1.2.2.2h.5c.1 0 .2-.1.2-.2V107c.1-.1 0-.2-.1-.2zM67 111c0 .4-.1.6-.3.8-.2.2-.5.3-.8.3h-.7c-.7 0-1-.3-1-1v-2.5c0-.7.3-1 1-1h1.7c.1 0 .1 0 .1.1v3.3zM72.2 112.1h-.5c-.7 0-1-.3-1-1v-3.4c0-.1 0-.1.1-.1h1.3c.1 0 .2-.1.2-.2v-.4c0-.1-.1-.2-.2-.2h-1.3c-.1 0-.1 0-.1-.1v-1c0-.1-.1-.2-.2-.2H70c-.1 0-.2.1-.2.2v1c0 .1 0 .1-.1.1H69c-.1 0-.2.1-.2.2v.4c0 .1.1.2.2.2h.7c.1 0 .1 0 .1.1v3.5c0 .5.2 1 .5 1.3.3.3.8.5 1.3.5h.6c.1 0 .2-.1.2-.2v-.4c0-.2-.1-.3-.2-.3zM76.3 106.8h-1c-.5 0-1 .2-1.3.5-.3.3-.5.7-.5 1.3v2.5c0 .6.2 1 .5 1.3.3.3.7.5 1.3.5h2.5c.1 0 .2-.1.2-.2v-.4c0-.1-.1-.2-.2-.2h-2.4c-.7 0-1-.3-1-1v-.7c0-.1 0-.1.1-.1h3.4c.1 0 .2-.1.2-.2v-1.5c0-.6-.2-1-.5-1.3-.3-.3-.7-.5-1.3-.5zm.9 2.7c0 .1 0 .1-.1.1h-2.6c-.1 0-.1 0-.1-.1v-.9c0-.7.3-1 1-1h.8c.7 0 1 .3 1 1v.9zM83.8 106.8h-.5c-.1 0-.2.1-.2.2v4.1c0 .4-.1.6-.3.8-.2.2-.5.3-.8.3h-.7c-.7 0-1-.3-1-1V107c0-.1-.1-.2-.2-.2h-.5c-.1 0-.2.1-.2.2v4.1c0 .6.2 1 .5 1.3.3.3.7.5 1.3.5h.7c.6 0 1-.2 1.2-.6v.5c0 .1.1.2.2.2h.5c.1 0 .2-.1.2-.2V107c0-.1-.1-.2-.2-.2zM88.2 106.8h-.5c-.3 0-.6.1-.8.2-.2.1-.4.3-.5.5v-.5c0-.1-.1-.2-.2-.2h-.5c-.1 0-.2.1-.2.2v5.7c0 .1.1.2.2.2h.5c.1 0 .2-.1.2-.2v-3.9c0-.4.1-.7.3-.9.2-.2.5-.3.8-.3h.7v-.6c.2-.1.2-.2 0-.2zM96.8 104.5h-.5c-.1 0-.2.1-.2.2v2.8c-.2-.4-.6-.6-1.2-.6h-.7c-.5 0-1 .2-1.3.5-.3.3-.5.7-.5 1.3v2.5c0 .6.2 1 .5 1.3.3.3.7.5 1.3.5h.7c.6 0 1-.2 1.2-.6v.5c0 .1.1.2.2.2h.5c.1 0 .2-.1.2-.2v-8c-.1-.3-.1-.4-.2-.4zm-.7 6.5c0 .4-.1.6-.3.8-.2.2-.5.3-.8.3h-.7c-.7 0-1-.3-1-1v-2.5c0-.7.3-1 1-1h.7c.4 0 .6.1.8.3.2.2.3.5.3.8v2.3zM101.2 106.8h-1c-.5 0-1 .2-1.3.5-.3.3-.5.7-.5 1.3v2.5c0 .6.2 1 .5 1.3.3.3.7.5 1.3.5h2.5c.1 0 .2-.1.2-.2v-.4c0-.1-.1-.2-.2-.2h-2.4c-.7 0-1-.3-1-1v-.7c0-.1 0-.1.1-.1h3.4c.1 0 .2-.1.2-.2v-1.5c0-.6-.2-1-.5-1.3-.3-.3-.7-.5-1.3-.5zm.9 2.7c0 .1 0 .1-.1.1h-2.6c-.1 0-.1 0-.1-.1v-.9c0-.7.3-1 1-1h.8c.7 0 1 .3 1 1v.9zM108.2 104.5h-.5c-.1 0-.2.1-.2.2v8c0 .1.1.2.2.2h.5c.1 0 .2-.1.2-.2v-8c0-.1-.1-.2-.2-.2zM114.3 106.8h-2.6c-.5 0-1 .2-1.3.5-.3.3-.5.7-.5 1.3v2.5c0 .6.2 1 .5 1.3.3.3.7.5 1.3.5h.6c.6 0 1-.2 1.2-.6v.5c0 .1.1.2.2.2h.5c.1 0 .2-.1.2-.2V107c.1-.1 0-.2-.1-.2zm-.7 4.2c0 .4-.1.6-.3.8-.2.2-.5.3-.8.3h-.7c-.7 0-1-.3-1-1v-2.5c0-.7.3-1 1-1h1.7c.1 0 .1 0 .1.1v3.3zM123.3 109.1c-.2-.1-.5-.2-.8-.3-.3-.1-.6-.2-.9-.2-.3-.1-.5-.1-.8-.2-.5-.2-.8-.4-.8-.8v-.5c0-.8.4-1.1 1.1-1.1h1c.7 0 1.1.4 1.1 1.1v.2c0 .1.1.2.2.2h.5c.1 0 .2-.1.2-.2v-.3c0-.5-.2-1-.5-1.3-.3-.3-.7-.5-1.3-.5H121c-.5 0-1 .2-1.3.5-.3.3-.5.7-.5 1.3v.6c0 .5.1.9.4 1.1.3.3.6.5 1 .6l1.2.3c.9.2 1.4.5 1.4 1.1v.4c0 .7-.4 1.1-1.1 1.1h-1c-.7 0-1.1-.4-1.1-1.1v-.3c0-.1-.1-.2-.2-.2h-.5c-.1 0-.2.1-.2.2v.4c0 .5.2 1 .5 1.3.3.3.7.5 1.3.5h1.4c.5 0 1-.2 1.3-.5.3-.3.5-.7.5-1.3v-.5c0-.4-.1-.7-.2-.9-.2-.4-.4-.6-.6-.7zM128.4 106.8h-1c-.5 0-1 .2-1.3.5-.3.3-.5.7-.5 1.3v2.5c0 .6.2 1 .5 1.3.3.3.7.5 1.3.5h2.5c.1 0 .2-.1.2-.2v-.4c0-.1-.1-.2-.2-.2h-2.4c-.7 0-1-.3-1-1v-.7c0-.1 0-.1.1-.1h3.4c.1 0 .2-.1.2-.2v-1.5c0-.6-.2-1-.5-1.3-.3-.3-.7-.5-1.3-.5zm.9 2.7c0 .1 0 .1-.1.1h-2.6c-.1 0-.1 0-.1-.1v-.9c0-.7.3-1 1-1h.8c.7 0 1 .3 1 1v.9zM137.6 106.8h-.4c-.3 0-.6.1-.9.2-.3.1-.5.3-.6.6-.3-.5-.8-.8-1.5-.8h-.4c-.6 0-1 .2-1.3.6v-.4c0-.1-.1-.2-.2-.2h-.5c-.1 0-.2.1-.2.2v5.7c0 .1.1.2.2.2h.5c.1 0 .2-.1.2-.2v-4.1c0-.3.1-.6.3-.8.2-.2.5-.3.8-.3h.4c.7 0 1 .3 1 1v4.1c0 .1.1.2.2.2h.5c.1 0 .2-.1.2-.2v-4c0-.3.1-.6.3-.8.2-.2.5-.3.8-.3h.4c.7 0 1 .3 1 1v4.1c0 .1.1.2.2.2h.5c.1 0 .2-.1.2-.2v-4.1c0-.6-.2-1-.5-1.3-.2-.2-.7-.4-1.2-.4zM145.1 106.8h-2.6c-.5 0-1 .2-1.3.5-.3.3-.5.7-.5 1.3v2.5c0 .6.2 1 .5 1.3.3.3.7.5 1.3.5h.6c.6 0 1-.2 1.2-.6v.5c0 .1.1.2.2.2h.5c.1 0 .2-.1.2-.2V107c.1-.1 0-.2-.1-.2zm-.7 4.2c0 .4-.1.6-.3.8-.2.2-.5.3-.8.3h-.7c-.7 0-1-.3-1-1v-2.5c0-.7.3-1 1-1h1.7c.1 0 .1 0 .1.1v3.3zM147.7 106.8h-.5c-.1 0-.2.1-.2.2v5.7c0 .1.1.2.2.2h.5c.1 0 .2-.1.2-.2V107c0-.1-.1-.2-.2-.2zM147.7 104.5h-.5c-.1 0-.2.1-.2.2v1.1c0 .1.1.2.2.2h.5c.1 0 .2-.1.2-.2v-1.1c0-.1-.1-.2-.2-.2zM152.4 106.8h-.7c-.6 0-1 .2-1.2.6v-.4c0-.1-.1-.2-.2-.2h-.5c-.1 0-.2.1-.2.2v5.7c0 .1.1.2.2.2h.5c.1 0 .2-.1.2-.2v-4.1c0-.3.1-.6.3-.8.2-.2.5-.3.8-.3h.7c.7 0 1 .3 1 1v4.1c0 .1.1.2.2.2h.5c.1 0 .2-.1.2-.2v-4.1c0-.6-.2-1-.5-1.3-.4-.2-.8-.4-1.3-.4zM158.3 106.8h-1c-.5 0-1 .2-1.3.5-.3.3-.5.7-.5 1.3v2.5c0 .6.2 1 .5 1.3.3.3.7.5 1.3.5h2.5c.1 0 .2-.1.2-.2v-.4c0-.1-.1-.2-.2-.2h-2.4c-.7 0-1-.3-1-1v-.7c0-.1 0-.1.1-.1h3.4c.1 0 .2-.1.2-.2v-1.5c0-.6-.2-1-.5-1.3-.3-.3-.7-.5-1.3-.5zm.9 2.7c0 .1 0 .1-.1.1h-2.6c-.1 0-.1 0-.1-.1v-.9c0-.7.3-1 1-1h.8c.7 0 1 .3 1 1v.9zM167.4 106.8h-.7c-.6 0-1 .2-1.2.6v-.4c0-.1-.1-.2-.2-.2h-.5c-.1 0-.2.1-.2.2v5.7c0 .1.1.2.2.2h.5c.1 0 .2-.1.2-.2v-4.1c0-.3.1-.6.3-.8.2-.2.5-.3.8-.3h.7c.7 0 1 .3 1 1v4.1c0 .1.1.2.2.2h.5c.1 0 .2-.1.2-.2v-4.1c0-.6-.2-1-.5-1.3-.4-.2-.8-.4-1.3-.4zM175 106.8h-.5c-.1 0-.2.1-.2.2v4.1c0 .4-.1.6-.3.8-.2.2-.5.3-.8.3h-.7c-.7 0-1-.3-1-1V107c0-.1-.1-.2-.2-.2h-.5c-.1 0-.2.1-.2.2v4.1c0 .6.2 1 .5 1.3.3.3.7.5 1.3.5h.7c.6 0 1-.2 1.2-.6v.5c0 .1.1.2.2.2h.5c.1 0 .2-.1.2-.2V107c-.1-.1-.1-.2-.2-.2zM182.7 106.8h-.4c-.3 0-.6.1-.9.2-.3.1-.5.3-.6.6-.3-.5-.8-.8-1.5-.8h-.3c-.6 0-1 .2-1.3.6v-.4c0-.1-.1-.2-.2-.2h-.5c-.1 0-.2.1-.2.2v5.7c0 .1.1.2.2.2h.5c.1 0 .2-.1.2-.2v-4.1c0-.3.1-.6.3-.8.2-.2.5-.3.8-.3h.4c.7 0 1 .3 1 1v4.1c0 .1.1.2.2.2h.5c.1 0 .2-.1.2-.2v-4c0-.3.1-.6.3-.8.2-.2.5-.3.8-.3h.4c.7 0 1 .3 1 1v4.1c0 .1.1.2.2.2h.5c.1 0 .2-.1.2-.2v-4.1c0-.6-.2-1-.5-1.3-.3-.2-.7-.4-1.3-.4zM188.5 105.9l1-1.3v-.1H188.7c-.1 0-.2.1-.3.2l-.7 1.2c-.1.1 0 .2.1.2h.4c.1-.1.2-.1.3-.2zM188.7 106.8h-1c-.5 0-1 .2-1.3.5-.3.3-.5.7-.5 1.3v2.5c0 .6.2 1 .5 1.3.3.3.7.5 1.3.5h2.5c.1 0 .2-.1.2-.2v-.4c0-.1-.1-.2-.2-.2h-2.4c-.7 0-1-.3-1-1v-.7c0-.1 0-.1.1-.1h3.4c.1 0 .2-.1.2-.2v-1.5c0-.6-.2-1-.5-1.3-.3-.3-.8-.5-1.3-.5zm.9 2.7c0 .1 0 .1-.1.1h-2.6c-.1 0-.1 0-.1-.1v-.9c0-.7.3-1 1-1h.8c.7 0 1 .3 1 1v.9zM194.5 106.8h-.5c-.3 0-.6.1-.8.2-.2.1-.4.3-.5.5v-.5c0-.1-.1-.2-.2-.2h-.5c-.1 0-.2.1-.2.2v5.7c0 .1.1.2.2.2h.5c.1 0 .2-.1.2-.2v-3.9c0-.4.1-.7.3-.9.2-.2.5-.3.8-.3h.7v-.6c.2-.1.1-.2 0-.2zM196.5 104.5h-.5c-.1 0-.2.1-.2.2v1.1c0 .1.1.2.2.2h.5c.1 0 .2-.1.2-.2v-1.1c0-.1-.1-.2-.2-.2zM196.5 106.8h-.5c-.1 0-.2.1-.2.2v5.7c0 .1.1.2.2.2h.5c.1 0 .2-.1.2-.2V107c0-.1-.1-.2-.2-.2zM202.6 106.8H200c-.5 0-1 .2-1.3.5-.3.3-.5.7-.5 1.3v2.5c0 .6.2 1 .5 1.3.3.3.7.5 1.3.5h.6c.6 0 1-.2 1.3-.6v2.2c0 .1.1.2.2.2h.5c.1 0 .2-.1.2-.2V107c0-.1-.1-.2-.2-.2zm-.7 4.2c0 .4-.1.6-.3.8-.2.2-.5.3-.8.3h-.7c-.7 0-1-.3-1-1v-2.5c0-.7.3-1 1-1h1.7c.1 0 .1 0 .1.1v3.3zM208.7 106.8h-.5c-.1 0-.2.1-.2.2v4.1c0 .4-.1.6-.3.8-.2.2-.5.3-.8.3h-.7c-.7 0-1-.3-1-1V107c0-.1-.1-.2-.2-.2h-.5c-.1 0-.2.1-.2.2v4.1c0 .6.2 1 .5 1.3.3.3.7.5 1.3.5h.7c.6 0 1-.2 1.2-.6v.5c0 .1.1.2.2.2h.5c.1 0 .2-.1.2-.2V107c0-.1-.1-.2-.2-.2zM213.2 106.8h-1c-.5 0-1 .2-1.3.5-.3.3-.5.7-.5 1.3v2.5c0 .6.2 1 .5 1.3.3.3.7.5 1.3.5h2.5c.1 0 .2-.1.2-.2v-.4c0-.1-.1-.2-.2-.2h-2.4c-.7 0-1-.3-1-1v-.7c0-.1 0-.1.1-.1h3.4c.1 0 .2-.1.2-.2v-1.5c0-.6-.2-1-.5-1.3-.4-.3-.8-.5-1.3-.5zm.9 2.7c0 .1 0 .1-.1.1h-2.6c-.1 0-.1 0-.1-.1v-.9c0-.7.3-1 1-1h.8c.7 0 1 .3 1 1v.9zM235 24h-3c-.4 0-.9.2-1.4.5l-3.4 2.1c-.4.2-.6.5-.6 1v3c0 .5.3.7.8.4l3.6-2.1V47c0 .5.3.8.8.8h3.2c.3 0 .5-.1.6-.2.1-.1.2-.3.2-.6V24.7c0-.5-.3-.7-.8-.7zM250.2 47.8h-7.9c-.5 0-.8-.3-.8-.8v-2.6c0-.5.3-.7.8-.7h7.1c.8 0 1.4-.2 1.7-.5.3-.3.5-.9.5-1.7v-2.2h-5.1c-2 0-3.5-.5-4.5-1.6-1.1-1-1.6-2.5-1.6-4.5v-3.3c0-2 .5-3.5 1.6-4.5s2.6-1.6 4.5-1.6h3.6c2 0 3.5.5 4.5 1.6 1.1 1 1.6 2.5 1.6 4.5v11.8c0 2-.5 3.5-1.6 4.5-.9 1.1-2.5 1.6-4.4 1.6zm-2.9-12.6h4.3v-5c0-.8-.2-1.4-.5-1.7-.3-.3-.9-.5-1.7-.5h-2.1c-.8 0-1.4.2-1.7.5-.3.3-.5.9-.5 1.7V33c0 .8.2 1.3.5 1.7.4.3.9.5 1.7.5zM105.5 23.9L69.6 77.7h-.1V23.9l-9.6 14.6-26.1 39.2h-.3V23.9h-9.6v66.3h11.8l24.2-34.8v34.8h11.8l45.7-66.3zM84.7 90.2h11.8l35.8-53.8h.1v53.8h9.7V24h-11.9zM214.9 57.2c0-4.7-.9-9-2.6-13-1.7-4-4.1-7.6-7.1-10.6s-6.5-5.4-10.6-7.1c-4.1-1.7-8.4-2.6-13.1-2.6-4.6 0-8.9.9-13 2.6-4.1 1.7-7.6 4.1-10.6 7.1s-5.4 6.5-7.1 10.6c-1.7 4-2.6 8.4-2.6 13 0 4.5.9 8.8 2.6 12.8 1.7 4 4.1 7.5 7.2 10.5 3 3 6.6 5.4 10.6 7.1 4 1.7 8.4 2.6 13 2.6 5 0 9.6-1 13.9-2.9l-5-7.2c-2.6 1.1-5.5 1.7-8.8 1.7-5 0-9.4-1.3-13.1-3.8-3.7-2.5-6.6-6-8.6-10.6-.6-1.7-1.2-3.3-1.5-5.1a23.278 23.278 0 0 1 0-10.5c.4-1.7.9-3.4 1.5-4.9 1.9-4.6 4.8-8.2 8.6-10.7s8.2-3.8 13.2-3.8c3.5 0 6.7.7 9.6 2 2.9 1.3 5.4 3.1 7.6 5.4 2.1 2.3 3.8 4.9 5 7.9 1.2 3 1.8 6.2 1.8 9.6 0 2.9-.5 5.7-1.5 8.6-.9 2.4-2 4.3-3.2 5.9-.8 1.3-1.8 2.4-2.9 3.4-1.1 1-2.2 1.9-3.4 2.7l3.3 4.6 1.7 2.4 3.6 5.2H214l-7.6-10.8c2.8-2.9 4.9-6.2 6.5-10 1.2-3.7 2-7.8 2-12.1z"/>
</svg>