<svg xmlns="http://www.w3.org/2000/svg" width="620" height="242.562" viewBox="0 0 620 242.562">
  <metadata><?xpacket begin="﻿" id="W5M0MpCehiHzreSzNTczkc9d"?>
<x:xmpmeta xmlns:x="adobe:ns:meta/" x:xmptk="Adobe XMP Core 5.6-c138 79.159824, 2016/09/14-01:09:01        ">
   <rdf:RDF xmlns:rdf="http://www.w3.org/1999/02/22-rdf-syntax-ns#">
      <rdf:Description rdf:about=""/>
   </rdf:RDF>
</x:xmpmeta>
                                                                                                    
                                                                                                    
                                                                                                    
                                                                                                    
                                                                                                    
                                                                                                    
                                                                                                    
                                                                                                    
                                                                                                    
                                                                                                    
                                                                                                    
                                                                                                    
                                                                                                    
                                                                                                    
                                                                                                    
                                                                                                    
                                                                                                    
                                                                                                    
                                                                                                    
                                                                                                    
                           
<?xpacket end="w"?></metadata>
<defs>
    <style>
      .cls-1 {
        fill: #000ca0;
        fill-rule: evenodd;
      }
    </style>
  </defs>
  <path id="WAQ18_SN" data-name="WAQ18+SN" class="cls-1" d="M1021.17,200.132h-7.91a7.87,7.87,0,0,0-3.87,1.388l-9,5.657a2.841,2.841,0,0,0-1.49,2.581V217.9q0,2.085,2.08,1.191l9.7-5.558v48.33a1.839,1.839,0,0,0,2.08,2.083h8.51a2.14,2.14,0,0,0,1.54-.447,2.35,2.35,0,0,0,.44-1.636V202.216A1.839,1.839,0,0,0,1021.17,200.132Zm55.04,27.586a16.363,16.363,0,0,0,1.78-7.938v-4.265q0-7.641-4.2-11.513t-12.03-3.87h-10.49q-7.92,0-12.13,3.87t-4.21,11.513v4.265q0,9.431,6.54,12.107-6.54,2.881-6.54,12.009v4.565q0,7.644,4.21,11.561t12.13,3.92h10.49q7.815,0,12.03-3.92,4.2-3.92,4.2-11.561V244q0-9.525-6.43-12.108A8.091,8.091,0,0,0,1076.21,227.718Zm-10.59,19.75q0,3.078-1.29,4.366c-0.85.861-2.34,1.292-4.45,1.292h-6.73c-2.12,0-3.6-.431-4.46-1.292s-1.28-2.314-1.28-4.366V242.9a7.068,7.068,0,0,1,1.28-4.662c0.86-.993,2.34-1.489,4.46-1.489h6.73c2.11,0,3.6.5,4.45,1.489a7.01,7.01,0,0,1,1.29,4.662v4.566Zm0-26.695a7.014,7.014,0,0,1-1.29,4.665c-0.85.993-2.34,1.489-4.45,1.489h-6.73c-2.12,0-3.6-.5-4.46-1.489a7.072,7.072,0,0,1-1.28-4.665V216.6c0-2.048.43-3.5,1.28-4.367s2.34-1.288,4.46-1.288h6.73c2.11,0,3.6.432,4.45,1.288s1.29,2.319,1.29,4.367v4.169ZM553.981,377.268h31.59L707.484,199.99H675.643L579.917,343.939H579.68V199.99l-25.7,39L484.415,343.939H483.71V199.99h-25.7V377.268h31.6l64.373-93.135v93.135ZM747.322,233.55h0.241V377.268h25.7V200.234h-31.6L620.237,377.268h31.59Zm194.532-7.559a89.117,89.117,0,0,0-28.3-19.027A89.452,89.452,0,0,0,815.7,225.75,89.8,89.8,0,0,0,796.723,254a87.292,87.292,0,0,0-6.954,34.863,85.277,85.277,0,0,0,6.954,34.27,89.112,89.112,0,0,0,19.1,28.134,90.691,90.691,0,0,0,28.3,19.023,86.2,86.2,0,0,0,34.54,6.972,87.555,87.555,0,0,0,37.024-7.8l-13.438-19.382a58.656,58.656,0,0,1-23.586,4.5q-20.034,0-35-10.048-14.985-10.045-23-28.24a91.832,91.832,0,0,1-4.126-13.6A64.333,64.333,0,0,1,815,288.866a66.439,66.439,0,0,1,1.528-14.292,76.291,76.291,0,0,1,4.126-13.128q7.789-18.444,22.874-28.6t35.13-10.161A60.965,60.965,0,0,1,904.247,228,62.881,62.881,0,0,1,924.4,242.423a65.766,65.766,0,0,1,13.21,21.149,70.188,70.188,0,0,1,4.7,25.763,68.342,68.342,0,0,1-4,22.931,70.692,70.692,0,0,1-8.492,15.845,46.061,46.061,0,0,1-7.662,9.216,87.493,87.493,0,0,1-9.075,7.321l8.722,12.29,4.489,6.384,9.664,13.943h28.294l-20.276-28.83A85.388,85.388,0,0,0,967.55,289.1,88.454,88.454,0,0,0,941.854,225.991ZM466.527,417.424h-3.814a4.326,4.326,0,0,0-4.7,4.714v11.055a4.325,4.325,0,0,0,4.7,4.717h3.814a4.331,4.331,0,0,0,4.706-4.717v-1.56a0.4,0.4,0,0,0-.446-0.446h-1.43a0.394,0.394,0,0,0-.445.446V433.1q0,2.769-2.671,2.772h-3.272q-2.639,0-2.638-2.772V422.234q0-2.769,2.638-2.771h3.272q2.672,0,2.671,2.771V423.7a0.394,0.394,0,0,0,.445.445h1.43a0.4,0.4,0,0,0,.446-0.445v-1.564A4.332,4.332,0,0,0,466.527,417.424Zm15.8,4.237h-2.731a4.325,4.325,0,0,0-4.7,4.716v6.816a4.325,4.325,0,0,0,4.7,4.717h2.731a4.326,4.326,0,0,0,4.7-4.717v-6.816A4.325,4.325,0,0,0,482.322,421.661Zm2.416,11.47q0,2.738-2.669,2.741h-2.224q-2.669,0-2.67-2.741v-6.692q0-2.738,2.67-2.737h2.224q2.668,0,2.669,2.737v6.692Zm8.39-17.618H491.7a0.394,0.394,0,0,0-.445.447v21.5a0.394,0.394,0,0,0,.445.446h1.43a0.393,0.393,0,0,0,.445-0.446v-21.5A0.394,0.394,0,0,0,493.128,415.513Zm7.022,0h-1.43a0.4,0.4,0,0,0-.446.447v21.5a0.4,0.4,0,0,0,.446.446h1.43a0.393,0.393,0,0,0,.444-0.446v-21.5A0.393,0.393,0,0,0,500.15,415.513Zm16.273,6.148h-6.895a4.325,4.325,0,0,0-4.7,4.716v6.816a4.325,4.325,0,0,0,4.7,4.717h1.653a3.219,3.219,0,0,0,3.241-1.688h0.126v1.242a0.393,0.393,0,0,0,.445.446h1.43a0.393,0.393,0,0,0,.445-0.446V422.107A0.4,0.4,0,0,0,516.423,421.661Zm-1.875,11.278a2.932,2.932,0,0,1-.763,2.168,2.968,2.968,0,0,1-2.193.765h-1.81q-2.638,0-2.639-2.772v-6.627q0-2.773,2.639-2.771h4.448a0.266,0.266,0,0,1,.318.284v8.953Zm14.175-11.47h-1.781a3.219,3.219,0,0,0-3.241,1.691h-0.127v-7.2a0.394,0.394,0,0,0-.445-0.447H521.7a0.393,0.393,0,0,0-.444.447v21.5a0.393,0.393,0,0,0,.444.446h7.024a4.323,4.323,0,0,0,4.672-4.717v-7.039A4.323,4.323,0,0,0,528.723,421.469Zm2.383,11.631q0,2.769-2.7,2.772h-4.513a0.269,0.269,0,0,1-.318-0.288v-9.176a2.887,2.887,0,0,1,.763-2.134,2.96,2.96,0,0,1,2.193-.765h1.875q2.7,0,2.7,2.772V433.1Zm13.472-11.439h-2.732a4.327,4.327,0,0,0-4.7,4.716v6.816a4.327,4.327,0,0,0,4.7,4.717h2.732a4.325,4.325,0,0,0,4.7-4.717v-6.816A4.325,4.325,0,0,0,544.578,421.661Zm2.416,11.47q0,2.738-2.67,2.741H542.1q-2.668,0-2.669-2.741v-6.692q0-2.738,2.669-2.737h2.224q2.668,0,2.67,2.737v6.692Zm13.347-11.47H559.1a4.148,4.148,0,0,0-2.1.511,2.763,2.763,0,0,0-1.208,1.21H555.67v-1.275a0.4,0.4,0,0,0-.444-0.446H553.8a0.394,0.394,0,0,0-.445.446v15.357a0.393,0.393,0,0,0,.445.446h1.43a0.394,0.394,0,0,0,.444-0.446V426.919a3.433,3.433,0,0,1,.763-2.359,2.772,2.772,0,0,1,2.193-.858h1.715a0.333,0.333,0,0,0,.318-0.081,0.5,0.5,0,0,0,.1-0.335v-1.179A0.382,0.382,0,0,0,560.341,421.661Zm14.556,0H568a4.325,4.325,0,0,0-4.7,4.716v6.816a4.325,4.325,0,0,0,4.7,4.717h1.653q2.445,0,3.24-1.688h0.127v1.242a0.393,0.393,0,0,0,.445.446h1.43a0.394,0.394,0,0,0,.446-0.446V422.107A0.4,0.4,0,0,0,574.9,421.661Zm-1.875,11.278a2.936,2.936,0,0,1-.763,2.168,2.968,2.968,0,0,1-2.193.765h-1.811q-2.637,0-2.637-2.772v-6.627q0-2.773,2.637-2.771H572.7a0.266,0.266,0,0,1,.318.284v8.953Zm13.954,2.933h-1.242q-2.8,0-2.8-2.71v-9.176a0.283,0.283,0,0,1,.35-0.284h3.369a0.4,0.4,0,0,0,.476-0.416v-1.179a0.408,0.408,0,0,0-.476-0.446h-3.369a0.285,0.285,0,0,1-.35-0.286v-2.74a0.38,0.38,0,0,0-.413-0.446h-1.431a0.393,0.393,0,0,0-.445.446v2.74a0.268,0.268,0,0,1-.318.286h-1.746a0.4,0.4,0,0,0-.447.446v1.179a0.383,0.383,0,0,0,.447.416h1.746a0.266,0.266,0,0,1,.318.284v9.272a4.477,4.477,0,0,0,1.3,3.426,4.9,4.9,0,0,0,3.5,1.226h1.526a0.4,0.4,0,0,0,.475-0.415v-1.177A0.408,0.408,0,0,0,586.976,435.872Zm10.9-14.211h-2.669a4.327,4.327,0,0,0-4.7,4.716v6.816a4.327,4.327,0,0,0,4.7,4.717h6.737a0.381,0.381,0,0,0,.445-0.415v-1.146a0.394,0.394,0,0,0-.445-0.446h-6.483q-2.67,0-2.67-2.772v-1.944a0.267,0.267,0,0,1,.318-0.285H602.1a0.41,0.41,0,0,0,.445-0.481v-4.044a4.709,4.709,0,0,0-1.239-3.474A4.639,4.639,0,0,0,597.877,421.661Zm2.415,7.231a0.281,0.281,0,0,1-.318.319H593.11a0.281,0.281,0,0,1-.318-0.319v-2.453q0-2.738,2.67-2.737h2.161q2.67,0,2.669,2.737v2.453Zm17.605-7.231h-1.43a0.394,0.394,0,0,0-.444.446v10.832a2.944,2.944,0,0,1-.763,2.168,2.978,2.978,0,0,1-2.194.765h-1.813q-2.637,0-2.638-2.772V422.107a0.394,0.394,0,0,0-.444-0.446H606.74a0.4,0.4,0,0,0-.445.446v11.086a4.784,4.784,0,0,0,1.208,3.475,4.491,4.491,0,0,0,3.37,1.242h1.779q2.449,0,3.241-1.688h0.13v1.242a0.393,0.393,0,0,0,.444.446h1.43a0.4,0.4,0,0,0,.446-0.446V422.107A0.4,0.4,0,0,0,617.9,421.661Zm11.823,0h-1.239a4.146,4.146,0,0,0-2.1.511,2.76,2.76,0,0,0-1.207,1.21h-0.127v-1.275a0.4,0.4,0,0,0-.445-0.446h-1.43a0.394,0.394,0,0,0-.445.446v15.357a0.393,0.393,0,0,0,.445.446h1.43a0.4,0.4,0,0,0,.445-0.446V426.919a3.428,3.428,0,0,1,.763-2.359,2.771,2.771,0,0,1,2.193-.858h1.715a0.334,0.334,0,0,0,.318-0.081,0.5,0.5,0,0,0,.1-0.335v-1.179A0.382,0.382,0,0,0,629.72,421.661Zm22.754-6.148h-1.461a0.38,0.38,0,0,0-.414.447v7.389h-0.126q-0.8-1.687-3.275-1.688h-1.875a4.479,4.479,0,0,0-3.367,1.242,4.777,4.777,0,0,0-1.208,3.474v6.816a4.779,4.779,0,0,0,1.208,3.475,4.479,4.479,0,0,0,3.367,1.242H647.2q2.48,0,3.275-1.688H650.6v1.242a0.38,0.38,0,0,0,.414.446h1.461a0.38,0.38,0,0,0,.414-0.446v-21.5A0.38,0.38,0,0,0,652.474,415.513ZM650.6,432.939a2.932,2.932,0,0,1-.763,2.168,2.968,2.968,0,0,1-2.193.765h-1.937q-2.639,0-2.638-2.772v-6.627q0-2.773,2.638-2.771h1.937a2.963,2.963,0,0,1,2.193.762,2.933,2.933,0,0,1,.763,2.167v6.308Zm13.731-11.278h-2.669a4.327,4.327,0,0,0-4.7,4.716v6.816a4.327,4.327,0,0,0,4.7,4.717H668.4a0.381,0.381,0,0,0,.445-0.415v-1.146a0.394,0.394,0,0,0-.445-0.446h-6.483q-2.67,0-2.67-2.772v-1.944a0.267,0.267,0,0,1,.318-0.285h8.993a0.41,0.41,0,0,0,.445-0.481v-4.044a4.709,4.709,0,0,0-1.239-3.474A4.641,4.641,0,0,0,664.33,421.661Zm2.415,7.231a0.281,0.281,0,0,1-.317.319h-6.865a0.281,0.281,0,0,1-.318-0.319v-2.453q0-2.738,2.67-2.737h2.161q2.67,0,2.669,2.737v2.453Zm16.269-13.379h-1.431a0.4,0.4,0,0,0-.445.447v21.5a0.4,0.4,0,0,0,.445.446h1.431a0.393,0.393,0,0,0,.444-0.446v-21.5A0.393,0.393,0,0,0,683.014,415.513Zm16.272,6.148h-6.895a4.325,4.325,0,0,0-4.7,4.716v6.816a4.325,4.325,0,0,0,4.7,4.717h1.654q2.443,0,3.24-1.688h0.127v1.242a0.393,0.393,0,0,0,.444.446h1.43a0.394,0.394,0,0,0,.446-0.446V422.107A0.4,0.4,0,0,0,699.286,421.661Zm-1.874,11.278a2.936,2.936,0,0,1-.763,2.168,2.971,2.971,0,0,1-2.194.765h-1.81q-2.637,0-2.638-2.772v-6.627q0-2.773,2.638-2.771h4.448a0.266,0.266,0,0,1,.319.284v8.953Zm25.806-5.113a11.566,11.566,0,0,0-2.113-.829c-0.774-.223-1.541-0.4-2.305-0.542s-1.461-.29-2.1-0.462q-2.13-.6-2.131-2.229v-1.273q0-3.031,2.829-3.028h2.7q2.829,0,2.827,2.9v0.575a0.4,0.4,0,0,0,.414.478h1.461a0.4,0.4,0,0,0,.414-0.478v-0.8a4.368,4.368,0,0,0-4.705-4.714h-3.527a4.345,4.345,0,0,0-4.7,4.714V423.7a4.043,4.043,0,0,0,1.112,3.01,5.639,5.639,0,0,0,2.7,1.48q1.59,0.381,3.178.669,3.783,0.7,3.782,3v1.083q0,2.932-2.827,2.933h-2.8q-2.827,0-2.826-2.868v-0.83a0.4,0.4,0,0,0-.445-0.445h-1.43a0.393,0.393,0,0,0-.445.445v1.019a4.365,4.365,0,0,0,4.7,4.717h3.654a4.365,4.365,0,0,0,4.7-4.717V431.76a4.764,4.764,0,0,0-.586-2.437A3.808,3.808,0,0,0,723.218,427.826Zm13.666-6.165h-2.669a4.325,4.325,0,0,0-4.7,4.716v6.816a4.325,4.325,0,0,0,4.7,4.717h6.737a0.381,0.381,0,0,0,.445-0.415v-1.146a0.394,0.394,0,0,0-.445-0.446h-6.483q-2.67,0-2.67-2.772v-1.944a0.268,0.268,0,0,1,.319-0.285h8.992a0.41,0.41,0,0,0,.445-0.481v-4.044a4.709,4.709,0,0,0-1.239-3.474A4.637,4.637,0,0,0,736.884,421.661Zm2.416,7.231a0.282,0.282,0,0,1-.319.319h-6.863a0.282,0.282,0,0,1-.319-0.319v-2.453q0-2.738,2.67-2.737h2.162q2.668,0,2.669,2.737v2.453Zm22.053-7.231h-1.112a5.022,5.022,0,0,0-2.3.557,3.475,3.475,0,0,0-1.607,1.611,3.946,3.946,0,0,0-3.876-2.168h-1.175a3.453,3.453,0,0,0-3.369,1.688h-0.127v-1.242a0.4,0.4,0,0,0-.445-0.446h-1.43a0.4,0.4,0,0,0-.445.446v15.357a0.393,0.393,0,0,0,.445.446h1.43a0.394,0.394,0,0,0,.445-0.446V426.631a2.933,2.933,0,0,1,.763-2.167,2.963,2.963,0,0,1,2.193-.762h1.174q2.67,0,2.672,2.771v10.991a0.393,0.393,0,0,0,.445.446h1.43a0.394,0.394,0,0,0,.445-0.446V426.727a3.07,3.07,0,0,1,.778-2.214,2.911,2.911,0,0,1,2.209-.811h1.048q2.668,0,2.669,2.771v10.991a0.394,0.394,0,0,0,.445.446h1.43a0.393,0.393,0,0,0,.444-0.446V426.377a4.768,4.768,0,0,0-1.207-3.474A4.483,4.483,0,0,0,761.353,421.661Zm20.085,0h-6.895a4.327,4.327,0,0,0-4.7,4.716v6.816a4.327,4.327,0,0,0,4.7,4.717H776.2q2.445,0,3.241-1.688h0.127v1.242a0.393,0.393,0,0,0,.444.446h1.43a0.394,0.394,0,0,0,.446-0.446V422.107A0.4,0.4,0,0,0,781.438,421.661Zm-1.874,11.278a2.932,2.932,0,0,1-.763,2.168,2.971,2.971,0,0,1-2.193.765H774.8q-2.637,0-2.638-2.772v-6.627q0-2.773,2.638-2.771h4.448a0.266,0.266,0,0,1,.319.284v8.953Zm8.739-11.278h-1.461a0.382,0.382,0,0,0-.415.446v15.357a0.4,0.4,0,0,0,.446.446h1.43a0.393,0.393,0,0,0,.444-0.446V422.107A0.394,0.394,0,0,0,788.3,421.661Zm0-6.116h-1.461a0.381,0.381,0,0,0-.415.446v2.994a0.38,0.38,0,0,0,.415.446H788.3a0.392,0.392,0,0,0,.444-0.446v-2.994A0.393,0.393,0,0,0,788.3,415.545Zm12.458,6.116h-1.782q-2.444,0-3.24,1.688h-0.127v-1.242a0.4,0.4,0,0,0-.445-0.446h-1.43a0.394,0.394,0,0,0-.445.446v15.357a0.393,0.393,0,0,0,.445.446h1.43a0.394,0.394,0,0,0,.445-0.446V426.631a2.661,2.661,0,0,1,2.956-2.929h1.78q2.668,0,2.669,2.771v10.991a0.393,0.393,0,0,0,.445.446h1.429a0.394,0.394,0,0,0,.446-0.446V426.377a4.781,4.781,0,0,0-1.208-3.474A4.481,4.481,0,0,0,800.761,421.661Zm15.859,0h-2.669a4.327,4.327,0,0,0-4.7,4.716v6.816a4.327,4.327,0,0,0,4.7,4.717h6.738a0.38,0.38,0,0,0,.444-0.415v-1.146a0.393,0.393,0,0,0-.444-0.446h-6.484q-2.668,0-2.669-2.772v-1.944a0.267,0.267,0,0,1,.318-0.285h8.993a0.41,0.41,0,0,0,.445-0.481v-4.044a4.713,4.713,0,0,0-1.239-3.474A4.641,4.641,0,0,0,816.62,421.661Zm2.416,7.231a0.281,0.281,0,0,1-.318.319h-6.864a0.281,0.281,0,0,1-.318-0.319v-2.453q0-2.738,2.669-2.737h2.162q2.67,0,2.669,2.737v2.453Zm21.705-7.231h-1.782a3.219,3.219,0,0,0-3.241,1.688h-0.127v-1.242a0.4,0.4,0,0,0-.444-0.446h-1.431a0.393,0.393,0,0,0-.444.446v15.357a0.392,0.392,0,0,0,.444.446h1.431a0.393,0.393,0,0,0,.444-0.446V426.631a2.662,2.662,0,0,1,2.957-2.929h1.778q2.67,0,2.67,2.771v10.991a0.393,0.393,0,0,0,.445.446h1.43a0.393,0.393,0,0,0,.445-0.446V426.377a4.777,4.777,0,0,0-1.208-3.474A4.48,4.48,0,0,0,840.741,421.661Zm20.246,0h-1.431a0.4,0.4,0,0,0-.445.446v10.832a2.94,2.94,0,0,1-.763,2.168,2.974,2.974,0,0,1-2.193.765h-1.813q-2.637,0-2.638-2.772V422.107a0.394,0.394,0,0,0-.445-0.446h-1.43a0.4,0.4,0,0,0-.445.446v11.086a4.784,4.784,0,0,0,1.208,3.475,4.491,4.491,0,0,0,3.37,1.242h1.78q2.447,0,3.24-1.688h0.129v1.242a0.393,0.393,0,0,0,.445.446h1.431a0.393,0.393,0,0,0,.444-0.446V422.107A0.4,0.4,0,0,0,860.987,421.661Zm20.718,0h-1.112a5.022,5.022,0,0,0-2.3.557,3.469,3.469,0,0,0-1.606,1.611,3.947,3.947,0,0,0-3.877-2.168h-1.174a3.454,3.454,0,0,0-3.37,1.688h-0.127v-1.242a0.4,0.4,0,0,0-.445-0.446h-1.43a0.4,0.4,0,0,0-.445.446v15.357a0.393,0.393,0,0,0,.445.446h1.43a0.394,0.394,0,0,0,.445-0.446V426.631a2.933,2.933,0,0,1,.763-2.167,2.963,2.963,0,0,1,2.193-.762h1.174q2.67,0,2.673,2.771v10.991a0.393,0.393,0,0,0,.444.446h1.43a0.394,0.394,0,0,0,.445-0.446V426.727a3.07,3.07,0,0,1,.778-2.214,2.911,2.911,0,0,1,2.209-.811h1.048q2.67,0,2.669,2.771v10.991a0.394,0.394,0,0,0,.445.446h1.43a0.393,0.393,0,0,0,.445-0.446V426.377a4.768,4.768,0,0,0-1.208-3.474A4.483,4.483,0,0,0,881.705,421.661Zm15.319-2.357,2.765-3.344a0.323,0.323,0,0,0,.065-0.319,0.291,0.291,0,0,0-.287-0.128h-1.906a0.677,0.677,0,0,0-.668.413l-1.844,3.251c-0.171.295-.105,0.447,0.191,0.447h1.048A0.915,0.915,0,0,0,897.024,419.3Zm0.541,2.357H894.9a4.327,4.327,0,0,0-4.7,4.716v6.816a4.327,4.327,0,0,0,4.7,4.717h6.737a0.382,0.382,0,0,0,.446-0.415v-1.146a0.4,0.4,0,0,0-.446-0.446h-6.484q-2.668,0-2.669-2.772v-1.944a0.267,0.267,0,0,1,.318-0.285h8.992a0.41,0.41,0,0,0,.446-0.481v-4.044A4.709,4.709,0,0,0,901,422.9,4.641,4.641,0,0,0,897.565,421.661Zm2.415,7.231a0.281,0.281,0,0,1-.317.319H892.8a0.281,0.281,0,0,1-.318-0.319v-2.453q0-2.738,2.669-2.737h2.162q2.67,0,2.669,2.737v2.453Zm13.155-7.231H911.9a4.148,4.148,0,0,0-2.1.511,2.774,2.774,0,0,0-1.208,1.21h-0.126v-1.275a0.4,0.4,0,0,0-.445-0.446h-1.431a0.394,0.394,0,0,0-.444.446v15.357a0.393,0.393,0,0,0,.444.446h1.431a0.394,0.394,0,0,0,.445-0.446V426.919a3.428,3.428,0,0,1,.763-2.359,2.768,2.768,0,0,1,2.193-.858h1.715a0.334,0.334,0,0,0,.318-0.081,0.5,0.5,0,0,0,.1-0.335v-1.179A0.381,0.381,0,0,0,913.135,421.661Zm5.307-6.116h-1.461a0.381,0.381,0,0,0-.415.446v2.994a0.38,0.38,0,0,0,.415.446h1.461a0.393,0.393,0,0,0,.445-0.446v-2.994A0.393,0.393,0,0,0,918.442,415.545Zm0,6.116h-1.461a0.382,0.382,0,0,0-.415.446v15.357a0.4,0.4,0,0,0,.446.446h1.43a0.393,0.393,0,0,0,.445-0.446V422.107A0.4,0.4,0,0,0,918.442,421.661Zm16.273,0h-6.9a4.327,4.327,0,0,0-4.7,4.716v6.816a4.327,4.327,0,0,0,4.7,4.717h1.558a3.446,3.446,0,0,0,3.336-1.722h0.127v5.928a0.393,0.393,0,0,0,.445.445h1.43a0.393,0.393,0,0,0,.445-0.445V422.107A0.4,0.4,0,0,0,934.715,421.661Zm-1.875,11.182a3.067,3.067,0,0,1-.778,2.215,2.964,2.964,0,0,1-2.24.814h-1.749q-2.637,0-2.638-2.772v-6.627q0-2.773,2.638-2.771h4.449a0.266,0.266,0,0,1,.318.284v8.857Zm18.148-11.182h-1.43a0.394,0.394,0,0,0-.445.446v10.832a2.944,2.944,0,0,1-.763,2.168,2.974,2.974,0,0,1-2.193.765h-1.813q-2.639,0-2.638-2.772V422.107a0.394,0.394,0,0,0-.445-0.446H939.83a0.4,0.4,0,0,0-.444.446v11.086a4.779,4.779,0,0,0,1.208,3.475,4.491,4.491,0,0,0,3.37,1.242h1.779q2.448,0,3.24-1.688h0.13v1.242a0.393,0.393,0,0,0,.445.446h1.43a0.394,0.394,0,0,0,.445-0.446V422.107A0.4,0.4,0,0,0,950.988,421.661Zm11.884,0H960.2a4.325,4.325,0,0,0-4.7,4.716v6.816a4.325,4.325,0,0,0,4.7,4.717h6.738a0.381,0.381,0,0,0,.445-0.415v-1.146a0.394,0.394,0,0,0-.445-0.446h-6.484q-2.67,0-2.67-2.772v-1.944a0.268,0.268,0,0,1,.318-0.285H967.1a0.41,0.41,0,0,0,.445-0.481v-4.044a4.712,4.712,0,0,0-1.238-3.474A4.643,4.643,0,0,0,962.872,421.661Zm2.416,7.231a0.281,0.281,0,0,1-.318.319h-6.865a0.282,0.282,0,0,1-.318-0.319v-2.453q0-2.738,2.67-2.737h2.162q2.668,0,2.669,2.737v2.453Z" transform="translate(-458 -200)"/>
</svg>
