<?xml version="1.0" encoding="UTF-8"?>
<svg width="621px" height="244px" viewBox="0 0 621 244" version="1.1" xmlns="http://www.w3.org/2000/svg" xmlns:xlink="http://www.w3.org/1999/xlink">
    <!-- Generator: Sketch 51.2 (57519) - http://www.bohemiancoding.com/sketch -->
    <title>Shape</title>
    <desc>Created with Sketch.</desc>
    <defs></defs>
    <g id="Page-1" stroke="none" stroke-width="1" fill="none" fill-rule="evenodd">
        <g id="waq-18-sn" fill="#000CA0" fill-rule="nonzero">
            <path d="M9.44068015,218.053551 L5.70413259,218.053551 C4.36965131,218.053551 3.03517004,218.587344 2.23448127,219.388033 C1.43379251,220.188721 0.9,221.256307 0.9,222.857684 L0.9,233.80043 C0.9,235.401808 1.43379251,236.469393 2.23448127,237.270082 C3.03517004,238.070771 4.10275506,238.604563 5.70413259,238.604563 L9.44068015,238.604563 C10.7751614,238.604563 12.1096427,238.070771 12.9103315,237.270082 C13.7110202,236.469393 14.2448127,235.401808 14.2448127,233.80043 L14.2448127,232.199053 C14.2448127,231.932157 13.9779165,231.66526 13.7110202,231.66526 L12.376539,231.66526 C12.1096427,231.66526 11.8427464,231.932157 11.8427464,232.199053 L11.8427464,233.533534 C11.8427464,235.401808 11.0420577,236.202497 9.1737839,236.202497 L5.97102884,236.202497 C4.10275506,236.202497 3.30206629,235.401808 3.30206629,233.533534 L3.30206629,222.857684 C3.30206629,220.98941 4.10275506,220.188721 5.97102884,220.188721 L9.1737839,220.188721 C11.0420577,220.188721 11.8427464,220.98941 11.8427464,222.857684 L11.8427464,224.192165 C11.8427464,224.459062 12.1096427,224.725958 12.376539,224.725958 L13.7110202,224.725958 C13.9779165,224.725958 14.2448127,224.459062 14.2448127,224.192165 L14.2448127,222.857684 C14.2448127,221.256307 13.7110202,220.188721 12.9103315,219.388033 C11.8427464,218.587344 10.7751614,218.053551 9.44068015,218.053551 Z M25.1875592,222.323892 L22.5185966,222.323892 C21.1841154,222.323892 19.8496341,222.857684 19.0489453,223.658373 C18.2482566,224.459062 17.7144641,225.526647 17.7144641,227.128024 L17.7144641,233.80043 C17.7144641,235.401808 18.2482566,236.469393 19.0489453,237.270082 C19.8496341,238.070771 20.9172191,238.604563 22.5185966,238.604563 L25.1875592,238.604563 C26.5220405,238.604563 27.8565217,238.070771 28.6572105,237.270082 C29.4578993,236.469393 29.9916918,235.401808 29.9916918,233.80043 L29.9916918,227.128024 C29.9916918,225.526647 29.4578993,224.459062 28.6572105,223.658373 C27.8565217,222.857684 26.5220405,222.323892 25.1875592,222.323892 Z M27.5896255,233.80043 C27.5896255,235.668704 26.7889367,236.469393 24.9206629,236.469393 L22.7854929,236.469393 C20.9172191,236.469393 20.1165303,235.668704 20.1165303,233.80043 L20.1165303,227.128024 C20.1165303,225.25975 20.9172191,224.459062 22.7854929,224.459062 L24.9206629,224.459062 C26.7889367,224.459062 27.5896255,225.25975 27.5896255,227.128024 L27.5896255,233.80043 Z M35.8634094,216.185278 L34.5289281,216.185278 C34.2620319,216.185278 33.9951356,216.452174 33.9951356,216.71907 L33.9951356,238.070771 C33.9951356,238.337667 34.2620319,238.604563 34.5289281,238.604563 L35.8634094,238.604563 C36.1303056,238.604563 36.3972019,238.337667 36.3972019,238.070771 L36.3972019,216.71907 C36.3972019,216.452174 36.1303056,216.185278 35.8634094,216.185278 Z M43.0696083,216.185278 L41.735127,216.185278 C41.4682307,216.185278 41.2013345,216.452174 41.2013345,216.71907 L41.2013345,238.070771 C41.2013345,238.337667 41.4682307,238.604563 41.735127,238.604563 L43.0696083,238.604563 C43.3365045,238.604563 43.6034008,238.337667 43.6034008,238.070771 L43.6034008,216.71907 C43.3365045,216.452174 43.3365045,216.185278 43.0696083,216.185278 Z M59.3502798,222.323892 L52.4109772,222.323892 C51.0764959,222.323892 49.7420146,222.857684 48.9413259,223.658373 C48.1406371,224.459062 47.6068446,225.526647 47.6068446,227.128024 L47.6068446,233.80043 C47.6068446,235.401808 48.1406371,236.469393 48.9413259,237.270082 C49.7420146,238.070771 50.8095997,238.604563 52.4109772,238.604563 L54.0123547,238.604563 C55.6137322,238.604563 56.6813173,238.070771 57.2151098,237.003186 L57.2151098,238.337667 C57.2151098,238.604563 57.482006,238.871459 57.7489023,238.871459 L59.0833836,238.871459 C59.3502798,238.871459 59.6171761,238.604563 59.6171761,238.337667 L59.6171761,222.857684 C59.6171761,222.590788 59.6171761,222.323892 59.3502798,222.323892 Z M57.482006,233.533534 C57.482006,234.601119 57.2151098,235.134912 56.6813173,235.668704 C56.1475248,236.202497 55.346836,236.469393 54.5461472,236.469393 L52.6778734,236.469393 C50.8095997,236.469393 50.0089109,235.668704 50.0089109,233.80043 L50.0089109,227.128024 C50.0089109,225.25975 50.8095997,224.459062 52.6778734,224.459062 L57.2151098,224.459062 C57.482006,224.459062 57.482006,224.459062 57.482006,224.725958 L57.482006,233.533534 Z M71.6275075,222.056995 L69.7592337,222.056995 C68.1578562,222.056995 67.0902712,222.590788 66.5564787,223.658373 L66.5564787,216.452174 C66.5564787,216.185278 66.2895824,215.918381 66.0226862,215.918381 L64.6882049,215.918381 C64.4213087,215.918381 64.1544124,216.185278 64.1544124,216.452174 L64.1544124,237.803874 C64.1544124,238.070771 64.4213087,238.337667 64.6882049,238.337667 L71.6275075,238.337667 C72.9619888,238.337667 74.2964701,237.803874 75.0971588,237.003186 C75.8978476,236.202497 76.4316401,235.134912 76.4316401,233.533534 L76.4316401,226.594232 C76.4316401,225.25975 75.8978476,223.925269 75.0971588,223.12458 C74.0295738,222.590788 72.9619888,222.056995 71.6275075,222.056995 Z M74.0295738,233.80043 C74.0295738,235.668704 73.2288851,236.469393 71.3606113,236.469393 L66.8233749,236.469393 C66.5564787,236.469393 66.5564787,236.469393 66.5564787,236.202497 L66.5564787,227.128024 C66.5564787,226.327335 66.8233749,225.526647 67.3571675,224.992854 C67.89096,224.459062 68.6916487,224.192165 69.4923375,224.192165 L71.3606113,224.192165 C73.2288851,224.192165 74.0295738,224.992854 74.0295738,226.861128 L74.0295738,233.80043 Z M87.3743866,222.323892 L84.705424,222.323892 C83.3709427,222.323892 82.0364615,222.857684 81.2357727,223.658373 C80.4350839,224.459062 79.9012914,225.526647 79.9012914,227.128024 L79.9012914,233.80043 C79.9012914,235.401808 80.4350839,236.469393 81.2357727,237.270082 C82.0364615,238.070771 83.1040465,238.604563 84.705424,238.604563 L87.3743866,238.604563 C88.7088678,238.604563 90.0433491,238.070771 90.8440379,237.270082 C91.6447266,236.469393 92.1785192,235.401808 92.1785192,233.80043 L92.1785192,227.128024 C92.1785192,225.526647 91.6447266,224.459062 90.8440379,223.658373 C90.0433491,222.857684 88.9757641,222.323892 87.3743866,222.323892 Z M89.7764529,233.80043 C89.7764529,235.668704 88.9757641,236.469393 87.1074903,236.469393 L84.9723203,236.469393 C83.1040465,236.469393 82.3033577,235.668704 82.3033577,233.80043 L82.3033577,227.128024 C82.3033577,225.25975 83.1040465,224.459062 84.9723203,224.459062 L87.1074903,224.459062 C88.9757641,224.459062 89.7764529,225.25975 89.7764529,227.128024 L89.7764529,233.80043 Z M103.121266,222.323892 L101.786784,222.323892 C100.986096,222.323892 100.185407,222.590788 99.6516143,222.857684 C99.1178218,223.12458 98.5840293,223.658373 98.317133,224.192165 L98.317133,222.857684 C98.317133,222.590788 98.0502368,222.323892 97.7833405,222.323892 L96.4488592,222.323892 C96.181963,222.323892 95.9150667,222.590788 95.9150667,222.857684 L95.9150667,238.070771 C95.9150667,238.337667 96.181963,238.604563 96.4488592,238.604563 L97.7833405,238.604563 C98.0502368,238.604563 98.317133,238.337667 98.317133,238.070771 L98.317133,227.661817 C98.317133,226.594232 98.5840293,225.793543 99.1178218,225.25975 C99.6516143,224.725958 100.452303,224.459062 101.252992,224.459062 L103.121266,224.459062 L103.121266,222.857684 C103.655058,222.590788 103.388162,222.323892 103.121266,222.323892 Z M117.80056,222.323892 L110.861257,222.323892 C109.526776,222.323892 108.192294,222.857684 107.391606,223.658373 C106.590917,224.459062 106.057124,225.526647 106.057124,227.128024 L106.057124,233.80043 C106.057124,235.401808 106.590917,236.469393 107.391606,237.270082 C108.192294,238.070771 109.259879,238.604563 110.861257,238.604563 L112.462635,238.604563 C114.064012,238.604563 115.131597,238.070771 115.66539,237.003186 L115.66539,238.337667 C115.66539,238.604563 115.932286,238.871459 116.199182,238.871459 L117.533663,238.871459 C117.80056,238.871459 118.067456,238.604563 118.067456,238.337667 L118.067456,222.857684 C118.334352,222.590788 118.067456,222.323892 117.80056,222.323892 Z M115.932286,233.533534 C115.932286,234.601119 115.66539,235.134912 115.131597,235.668704 C114.597805,236.202497 113.797116,236.469393 112.996427,236.469393 L111.128153,236.469393 C109.259879,236.469393 108.459191,235.668704 108.459191,233.80043 L108.459191,227.128024 C108.459191,225.25975 109.259879,224.459062 111.128153,224.459062 L115.66539,224.459062 C115.932286,224.459062 115.932286,224.459062 115.932286,224.725958 L115.932286,233.533534 Z M129.810891,236.469393 L128.47641,236.469393 C126.608136,236.469393 125.807447,235.668704 125.807447,233.80043 L125.807447,224.725958 C125.807447,224.459062 125.807447,224.459062 126.074344,224.459062 L129.543995,224.459062 C129.810891,224.459062 130.077787,224.192165 130.077787,223.925269 L130.077787,222.857684 C130.077787,222.590788 129.810891,222.323892 129.543995,222.323892 L126.074344,222.323892 C125.807447,222.323892 125.807447,222.323892 125.807447,222.056995 L125.807447,219.388033 C125.807447,219.121136 125.540551,218.85424 125.273655,218.85424 L123.939173,218.85424 C123.672277,218.85424 123.405381,219.121136 123.405381,219.388033 L123.405381,222.056995 C123.405381,222.323892 123.405381,222.323892 123.138485,222.323892 L121.270211,222.323892 C121.003315,222.323892 120.736418,222.590788 120.736418,222.857684 L120.736418,223.925269 C120.736418,224.192165 121.003315,224.459062 121.270211,224.459062 L123.138485,224.459062 C123.405381,224.459062 123.405381,224.459062 123.405381,224.725958 L123.405381,234.067327 C123.405381,235.401808 123.939173,236.736289 124.739862,237.536978 C125.540551,238.337667 126.875032,238.871459 128.209514,238.871459 L129.810891,238.871459 C130.077787,238.871459 130.344684,238.604563 130.344684,238.337667 L130.344684,237.270082 C130.344684,236.736289 130.077787,236.469393 129.810891,236.469393 Z M140.753638,222.323892 L138.084675,222.323892 C136.750194,222.323892 135.415712,222.857684 134.615024,223.658373 C133.814335,224.459062 133.280542,225.526647 133.280542,227.128024 L133.280542,233.80043 C133.280542,235.401808 133.814335,236.469393 134.615024,237.270082 C135.415712,238.070771 136.483297,238.604563 138.084675,238.604563 L144.757081,238.604563 C145.023978,238.604563 145.290874,238.337667 145.290874,238.070771 L145.290874,237.003186 C145.290874,236.736289 145.023978,236.469393 144.757081,236.469393 L138.351571,236.469393 C136.483297,236.469393 135.682609,235.668704 135.682609,233.80043 L135.682609,231.932157 C135.682609,231.66526 135.682609,231.66526 135.949505,231.66526 L145.023978,231.66526 C145.290874,231.66526 145.55777,231.398364 145.55777,231.131468 L145.55777,227.128024 C145.55777,225.526647 145.023978,224.459062 144.223289,223.658373 C143.4226,222.857684 142.355015,222.323892 140.753638,222.323892 Z M143.155704,229.53009 C143.155704,229.796987 143.155704,229.796987 142.888808,229.796987 L135.949505,229.796987 C135.682609,229.796987 135.682609,229.796987 135.682609,229.53009 L135.682609,227.128024 C135.682609,225.25975 136.483297,224.459062 138.351571,224.459062 L140.486741,224.459062 C142.355015,224.459062 143.155704,225.25975 143.155704,227.128024 L143.155704,229.53009 Z M160.770857,222.323892 L159.436375,222.323892 C159.169479,222.323892 158.902583,222.590788 158.902583,222.857684 L158.902583,233.80043 C158.902583,234.868015 158.635687,235.401808 158.101894,235.935601 C157.568102,236.469393 156.767413,236.736289 155.966724,236.736289 L154.09845,236.736289 C152.230176,236.736289 151.429488,235.935601 151.429488,234.067327 L151.429488,222.857684 C151.429488,222.590788 151.162591,222.323892 150.895695,222.323892 L149.561214,222.323892 C149.294318,222.323892 149.027421,222.590788 149.027421,222.857684 L149.027421,233.80043 C149.027421,235.401808 149.561214,236.469393 150.361903,237.270082 C151.162591,238.070771 152.230176,238.604563 153.831554,238.604563 L155.699828,238.604563 C157.301205,238.604563 158.36879,238.070771 158.902583,237.003186 L158.902583,238.337667 C158.902583,238.604563 159.169479,238.871459 159.436375,238.871459 L160.770857,238.871459 C161.037753,238.871459 161.304649,238.604563 161.304649,238.337667 L161.304649,222.857684 C161.304649,222.590788 161.037753,222.323892 160.770857,222.323892 Z M172.514292,222.323892 L171.179811,222.323892 C170.379122,222.323892 169.578433,222.590788 169.044641,222.857684 C168.510848,223.12458 167.977056,223.658373 167.710159,224.192165 L167.710159,222.857684 C167.710159,222.590788 167.443263,222.323892 167.176367,222.323892 L165.841885,222.323892 C165.574989,222.323892 165.308093,222.590788 165.308093,222.857684 L165.308093,238.070771 C165.308093,238.337667 165.574989,238.604563 165.841885,238.604563 L167.176367,238.604563 C167.443263,238.604563 167.710159,238.337667 167.710159,238.070771 L167.710159,227.661817 C167.710159,226.594232 167.977056,225.793543 168.510848,225.25975 C169.044641,224.725958 169.845329,224.459062 170.646018,224.459062 L172.514292,224.459062 L172.514292,222.857684 C173.048084,222.590788 173.048084,222.323892 172.514292,222.323892 Z M195.46737,216.185278 L194.132889,216.185278 C193.865992,216.185278 193.599096,216.452174 193.599096,216.71907 L193.599096,224.192165 C193.065303,223.12458 191.997718,222.590788 190.396341,222.590788 L188.528067,222.590788 C187.193586,222.590788 185.859105,223.12458 185.058416,223.925269 C184.257727,224.725958 183.723935,225.793543 183.723935,227.39492 L183.723935,234.067327 C183.723935,235.668704 184.257727,236.736289 185.058416,237.536978 C185.859105,238.337667 186.92669,238.871459 188.528067,238.871459 L190.396341,238.871459 C191.997718,238.871459 193.065303,238.337667 193.599096,237.270082 L193.599096,238.604563 C193.599096,238.871459 193.865992,239.138356 194.132889,239.138356 L195.46737,239.138356 C195.734266,239.138356 196.001162,238.871459 196.001162,238.604563 L196.001162,217.252863 C195.734266,216.452174 195.734266,216.185278 195.46737,216.185278 Z M193.599096,233.533534 C193.599096,234.601119 193.3322,235.134912 192.798407,235.668704 C192.264615,236.202497 191.463926,236.469393 190.663237,236.469393 L188.794963,236.469393 C186.92669,236.469393 186.126001,235.668704 186.126001,233.80043 L186.126001,227.128024 C186.126001,225.25975 186.92669,224.459062 188.794963,224.459062 L190.663237,224.459062 C191.730822,224.459062 192.264615,224.725958 192.798407,225.25975 C193.3322,225.793543 193.599096,226.594232 193.599096,227.39492 L193.599096,233.533534 Z M207.210805,222.323892 L204.541842,222.323892 C203.207361,222.323892 201.87288,222.857684 201.072191,223.658373 C200.271502,224.459062 199.73771,225.526647 199.73771,227.128024 L199.73771,233.80043 C199.73771,235.401808 200.271502,236.469393 201.072191,237.270082 C201.87288,238.070771 202.940465,238.604563 204.541842,238.604563 L211.214249,238.604563 C211.481145,238.604563 211.748041,238.337667 211.748041,238.070771 L211.748041,237.003186 C211.748041,236.736289 211.481145,236.469393 211.214249,236.469393 L204.808739,236.469393 C202.940465,236.469393 202.139776,235.668704 202.139776,233.80043 L202.139776,231.932157 C202.139776,231.66526 202.139776,231.66526 202.406672,231.66526 L211.481145,231.66526 C211.748041,231.66526 212.014938,231.398364 212.014938,231.131468 L212.014938,227.128024 C212.014938,225.526647 211.481145,224.459062 210.680456,223.658373 C209.879768,222.857684 208.812183,222.323892 207.210805,222.323892 Z M209.612871,229.53009 C209.612871,229.796987 209.612871,229.796987 209.345975,229.796987 L202.406672,229.796987 C202.139776,229.796987 202.139776,229.796987 202.139776,229.53009 L202.139776,227.128024 C202.139776,225.25975 202.940465,224.459062 204.808739,224.459062 L206.943909,224.459062 C208.812183,224.459062 209.612871,225.25975 209.612871,227.128024 L209.612871,229.53009 Z M225.893543,216.185278 L224.559062,216.185278 C224.292165,216.185278 224.025269,216.452174 224.025269,216.71907 L224.025269,238.070771 C224.025269,238.337667 224.292165,238.604563 224.559062,238.604563 L225.893543,238.604563 C226.160439,238.604563 226.427335,238.337667 226.427335,238.070771 L226.427335,216.71907 C226.427335,216.452174 226.160439,216.185278 225.893543,216.185278 Z M242.174214,222.323892 L235.234912,222.323892 C233.90043,222.323892 232.565949,222.857684 231.76526,223.658373 C230.964572,224.459062 230.430779,225.526647 230.430779,227.128024 L230.430779,233.80043 C230.430779,235.401808 230.964572,236.469393 231.76526,237.270082 C232.565949,238.070771 233.633534,238.604563 235.234912,238.604563 L236.836289,238.604563 C238.437667,238.604563 239.505252,238.070771 240.039044,237.003186 L240.039044,238.337667 C240.039044,238.604563 240.305941,238.871459 240.572837,238.871459 L241.907318,238.871459 C242.174214,238.871459 242.441111,238.604563 242.441111,238.337667 L242.441111,222.857684 C242.708007,222.590788 242.441111,222.323892 242.174214,222.323892 Z M240.305941,233.533534 C240.305941,234.601119 240.039044,235.134912 239.505252,235.668704 C238.971459,236.202497 238.170771,236.469393 237.370082,236.469393 L235.501808,236.469393 C233.633534,236.469393 232.832845,235.668704 232.832845,233.80043 L232.832845,227.128024 C232.832845,225.25975 233.633534,224.459062 235.501808,224.459062 L240.039044,224.459062 C240.305941,224.459062 240.305941,224.459062 240.305941,224.725958 L240.305941,233.533534 Z M266.194877,228.462505 C265.661085,228.195609 264.860396,227.928713 264.059707,227.661817 C263.259019,227.39492 262.45833,227.128024 261.657641,227.128024 C260.856952,226.861128 260.32316,226.861128 259.522471,226.594232 C258.18799,226.060439 257.387301,225.526647 257.387301,224.459062 L257.387301,223.12458 C257.387301,220.98941 258.454886,220.188721 260.32316,220.188721 L262.992122,220.188721 C264.860396,220.188721 265.927981,221.256307 265.927981,223.12458 L265.927981,223.658373 C265.927981,223.925269 266.194877,224.192165 266.461774,224.192165 L267.796255,224.192165 C268.063151,224.192165 268.330047,223.925269 268.330047,223.658373 L268.330047,222.857684 C268.330047,221.523203 267.796255,220.188721 266.995566,219.388033 C266.194877,218.587344 265.127292,218.053551 263.525915,218.053551 L260.056263,218.053551 C258.721782,218.053551 257.387301,218.587344 256.586612,219.388033 C255.785923,220.188721 255.252131,221.256307 255.252131,222.857684 L255.252131,224.459062 C255.252131,225.793543 255.519027,226.861128 256.319716,227.39492 C257.120405,228.195609 257.921093,228.729402 258.988678,228.996298 L262.191433,229.796987 C264.5935,230.330779 265.927981,231.131468 265.927981,232.732845 L265.927981,233.80043 C265.927981,235.668704 264.860396,236.736289 262.992122,236.736289 L260.32316,236.736289 C258.454886,236.736289 257.387301,235.668704 257.387301,233.80043 L257.387301,232.999742 C257.387301,232.732845 257.120405,232.465949 256.853508,232.465949 L255.519027,232.465949 C255.252131,232.465949 254.985235,232.732845 254.985235,232.999742 L254.985235,234.067327 C254.985235,235.401808 255.519027,236.736289 256.319716,237.536978 C257.120405,238.337667 258.18799,238.871459 259.789367,238.871459 L263.525915,238.871459 C264.860396,238.871459 266.194877,238.337667 266.995566,237.536978 C267.796255,236.736289 268.330047,235.668704 268.330047,234.067327 L268.330047,232.732845 C268.330047,231.66526 268.063151,230.864572 267.796255,230.330779 C267.262462,229.263194 266.72867,228.729402 266.194877,228.462505 Z M279.806586,222.323892 L277.137624,222.323892 C275.803142,222.323892 274.468661,222.857684 273.667972,223.658373 C272.867284,224.459062 272.333491,225.526647 272.333491,227.128024 L272.333491,233.80043 C272.333491,235.401808 272.867284,236.469393 273.667972,237.270082 C274.468661,238.070771 275.536246,238.604563 277.137624,238.604563 L283.81003,238.604563 C284.076926,238.604563 284.343823,238.337667 284.343823,238.070771 L284.343823,237.003186 C284.343823,236.736289 284.076926,236.469393 283.81003,236.469393 L277.40452,236.469393 C275.536246,236.469393 274.735557,235.668704 274.735557,233.80043 L274.735557,231.932157 C274.735557,231.66526 274.735557,231.66526 275.002454,231.66526 L284.076926,231.66526 C284.343823,231.66526 284.610719,231.398364 284.610719,231.131468 L284.610719,227.128024 C284.610719,225.526647 284.076926,224.459062 283.276238,223.658373 C282.475549,222.857684 281.407964,222.323892 279.806586,222.323892 Z M282.208653,229.53009 C282.208653,229.796987 282.208653,229.796987 281.941756,229.796987 L275.002454,229.796987 C274.735557,229.796987 274.735557,229.796987 274.735557,229.53009 L274.735557,227.128024 C274.735557,225.25975 275.536246,224.459062 277.40452,224.459062 L279.53969,224.459062 C281.407964,224.459062 282.208653,225.25975 282.208653,227.128024 L282.208653,229.53009 Z M304.361042,222.323892 L303.293457,222.323892 C302.492768,222.323892 301.692079,222.590788 300.89139,222.857684 C300.090702,223.12458 299.556909,223.658373 299.290013,224.459062 C298.489324,223.12458 297.154843,222.323892 295.286569,222.323892 L294.218984,222.323892 C292.617607,222.323892 291.550022,222.857684 290.749333,223.925269 L290.749333,222.857684 C290.749333,222.590788 290.482437,222.323892 290.21554,222.323892 L288.881059,222.323892 C288.614163,222.323892 288.347266,222.590788 288.347266,222.857684 L288.347266,238.070771 C288.347266,238.337667 288.614163,238.604563 288.881059,238.604563 L290.21554,238.604563 C290.482437,238.604563 290.749333,238.337667 290.749333,238.070771 L290.749333,227.128024 C290.749333,226.327335 291.016229,225.526647 291.550022,224.992854 C292.083814,224.459062 292.884503,224.192165 293.685192,224.192165 L294.752777,224.192165 C296.62105,224.192165 297.421739,224.992854 297.421739,226.861128 L297.421739,237.803874 C297.421739,238.070771 297.688635,238.337667 297.955532,238.337667 L299.290013,238.337667 C299.556909,238.337667 299.823805,238.070771 299.823805,237.803874 L299.823805,227.128024 C299.823805,226.327335 300.090702,225.526647 300.624494,224.992854 C301.158287,224.459062 301.958975,224.192165 302.759664,224.192165 L303.827249,224.192165 C305.695523,224.192165 306.496212,224.992854 306.496212,226.861128 L306.496212,237.803874 C306.496212,238.070771 306.763108,238.337667 307.030004,238.337667 L308.364486,238.337667 C308.631382,238.337667 308.898278,238.070771 308.898278,237.803874 L308.898278,226.861128 C308.898278,225.25975 308.364486,224.192165 307.563797,223.391477 C307.030004,222.857684 305.695523,222.323892 304.361042,222.323892 Z M324.378261,222.323892 L317.438958,222.323892 C316.104477,222.323892 314.769996,222.857684 313.969307,223.658373 C313.168618,224.459062 312.634826,225.526647 312.634826,227.128024 L312.634826,233.80043 C312.634826,235.401808 313.168618,236.469393 313.969307,237.270082 C314.769996,238.070771 315.837581,238.604563 317.438958,238.604563 L319.040336,238.604563 C320.641713,238.604563 321.709298,238.070771 322.243091,237.003186 L322.243091,238.337667 C322.243091,238.604563 322.509987,238.871459 322.776883,238.871459 L324.111365,238.871459 C324.378261,238.871459 324.645157,238.604563 324.645157,238.337667 L324.645157,222.857684 C324.912053,222.590788 324.645157,222.323892 324.378261,222.323892 Z M322.509987,233.533534 C322.509987,234.601119 322.243091,235.134912 321.709298,235.668704 C321.175506,236.202497 320.374817,236.469393 319.574128,236.469393 L317.705854,236.469393 C315.837581,236.469393 315.036892,235.668704 315.036892,233.80043 L315.036892,227.128024 C315.036892,225.25975 315.837581,224.459062 317.705854,224.459062 L322.243091,224.459062 C322.509987,224.459062 322.509987,224.459062 322.509987,224.725958 L322.509987,233.533534 Z M331.317563,222.323892 L329.983082,222.323892 C329.716186,222.323892 329.44929,222.590788 329.44929,222.857684 L329.44929,238.070771 C329.44929,238.337667 329.716186,238.604563 329.983082,238.604563 L331.317563,238.604563 C331.58446,238.604563 331.851356,238.337667 331.851356,238.070771 L331.851356,222.857684 C331.851356,222.590788 331.58446,222.323892 331.317563,222.323892 Z M331.317563,216.185278 L329.983082,216.185278 C329.716186,216.185278 329.44929,216.452174 329.44929,216.71907 L329.44929,219.654929 C329.44929,219.921825 329.716186,220.188721 329.983082,220.188721 L331.317563,220.188721 C331.58446,220.188721 331.851356,219.921825 331.851356,219.654929 L331.851356,216.71907 C331.851356,216.452174 331.58446,216.185278 331.317563,216.185278 Z M343.861687,222.323892 L341.993414,222.323892 C340.392036,222.323892 339.324451,222.857684 338.790659,223.925269 L338.790659,222.857684 C338.790659,222.590788 338.523762,222.323892 338.256866,222.323892 L336.922385,222.323892 C336.655489,222.323892 336.388592,222.590788 336.388592,222.857684 L336.388592,238.070771 C336.388592,238.337667 336.655489,238.604563 336.922385,238.604563 L338.256866,238.604563 C338.523762,238.604563 338.790659,238.337667 338.790659,238.070771 L338.790659,227.128024 C338.790659,226.327335 339.057555,225.526647 339.591347,224.992854 C340.12514,224.459062 340.925829,224.192165 341.726517,224.192165 L343.594791,224.192165 C345.463065,224.192165 346.263754,224.992854 346.263754,226.861128 L346.263754,237.803874 C346.263754,238.070771 346.53065,238.337667 346.797546,238.337667 L348.132028,238.337667 C348.398924,238.337667 348.66582,238.070771 348.66582,237.803874 L348.66582,226.861128 C348.66582,225.25975 348.132028,224.192165 347.331339,223.391477 C346.263754,222.857684 345.196169,222.323892 343.861687,222.323892 Z M359.608567,222.323892 L356.939604,222.323892 C355.605123,222.323892 354.270641,222.857684 353.469953,223.658373 C352.669264,224.459062 352.135471,225.526647 352.135471,227.128024 L352.135471,233.80043 C352.135471,235.401808 352.669264,236.469393 353.469953,237.270082 C354.270641,238.070771 355.338226,238.604563 356.939604,238.604563 L363.61201,238.604563 C363.878907,238.604563 364.145803,238.337667 364.145803,238.070771 L364.145803,237.003186 C364.145803,236.736289 363.878907,236.469393 363.61201,236.469393 L357.2065,236.469393 C355.338226,236.469393 354.537538,235.668704 354.537538,233.80043 L354.537538,231.932157 C354.537538,231.66526 354.537538,231.66526 354.804434,231.66526 L363.878907,231.66526 C364.145803,231.66526 364.412699,231.398364 364.412699,231.131468 L364.412699,227.128024 C364.412699,225.526647 363.878907,224.459062 363.078218,223.658373 C362.277529,222.857684 361.209944,222.323892 359.608567,222.323892 Z M362.010633,229.53009 C362.010633,229.796987 362.010633,229.796987 361.743737,229.796987 L354.804434,229.796987 C354.537538,229.796987 354.537538,229.796987 354.537538,229.53009 L354.537538,227.128024 C354.537538,225.25975 355.338226,224.459062 357.2065,224.459062 L359.34167,224.459062 C361.209944,224.459062 362.010633,225.25975 362.010633,227.128024 L362.010633,229.53009 Z M383.896126,222.323892 L382.027852,222.323892 C380.426474,222.323892 379.358889,222.857684 378.825097,223.925269 L378.825097,222.857684 C378.825097,222.590788 378.558201,222.323892 378.291304,222.323892 L376.956823,222.323892 C376.689927,222.323892 376.423031,222.590788 376.423031,222.857684 L376.423031,238.070771 C376.423031,238.337667 376.689927,238.604563 376.956823,238.604563 L378.291304,238.604563 C378.558201,238.604563 378.825097,238.337667 378.825097,238.070771 L378.825097,227.128024 C378.825097,226.327335 379.091993,225.526647 379.625786,224.992854 C380.159578,224.459062 380.960267,224.192165 381.760956,224.192165 L383.629229,224.192165 C385.497503,224.192165 386.298192,224.992854 386.298192,226.861128 L386.298192,237.803874 C386.298192,238.070771 386.565088,238.337667 386.831985,238.337667 L388.166466,238.337667 C388.433362,238.337667 388.700258,238.070771 388.700258,237.803874 L388.700258,226.861128 C388.700258,225.25975 388.166466,224.192165 387.365777,223.391477 C386.298192,222.857684 385.230607,222.323892 383.896126,222.323892 Z M404.180241,222.323892 L402.84576,222.323892 C402.578864,222.323892 402.311967,222.590788 402.311967,222.857684 L402.311967,233.80043 C402.311967,234.868015 402.045071,235.401808 401.511279,235.935601 C400.977486,236.469393 400.176797,236.736289 399.376108,236.736289 L397.507835,236.736289 C395.639561,236.736289 394.838872,235.935601 394.838872,234.067327 L394.838872,222.857684 C394.838872,222.590788 394.571976,222.323892 394.30508,222.323892 L392.970598,222.323892 C392.703702,222.323892 392.436806,222.590788 392.436806,222.857684 L392.436806,233.80043 C392.436806,235.401808 392.970598,236.469393 393.771287,237.270082 C394.571976,238.070771 395.639561,238.604563 397.240938,238.604563 L399.109212,238.604563 C400.71059,238.604563 401.778175,238.070771 402.311967,237.003186 L402.311967,238.337667 C402.311967,238.604563 402.578864,238.871459 402.84576,238.871459 L404.180241,238.871459 C404.447137,238.871459 404.714034,238.604563 404.714034,238.337667 L404.714034,222.857684 C404.447137,222.590788 404.447137,222.323892 404.180241,222.323892 Z M424.731253,222.323892 L423.663668,222.323892 C422.862979,222.323892 422.06229,222.590788 421.261601,222.857684 C420.460913,223.12458 419.92712,223.658373 419.660224,224.459062 C418.859535,223.12458 417.525054,222.323892 415.65678,222.323892 L414.856091,222.323892 C413.254714,222.323892 412.187129,222.857684 411.38644,223.925269 L411.38644,222.857684 C411.38644,222.590788 411.119544,222.323892 410.852647,222.323892 L409.518166,222.323892 C409.25127,222.323892 408.984374,222.590788 408.984374,222.857684 L408.984374,238.070771 C408.984374,238.337667 409.25127,238.604563 409.518166,238.604563 L410.852647,238.604563 C411.119544,238.604563 411.38644,238.337667 411.38644,238.070771 L411.38644,227.128024 C411.38644,226.327335 411.653336,225.526647 412.187129,224.992854 C412.720921,224.459062 413.52161,224.192165 414.322299,224.192165 L415.389884,224.192165 C417.258158,224.192165 418.058846,224.992854 418.058846,226.861128 L418.058846,237.803874 C418.058846,238.070771 418.325743,238.337667 418.592639,238.337667 L419.92712,238.337667 C420.194016,238.337667 420.460913,238.070771 420.460913,237.803874 L420.460913,227.128024 C420.460913,226.327335 420.727809,225.526647 421.261601,224.992854 C421.795394,224.459062 422.596083,224.192165 423.396771,224.192165 L424.464356,224.192165 C426.33263,224.192165 427.133319,224.992854 427.133319,226.861128 L427.133319,237.803874 C427.133319,238.070771 427.400215,238.337667 427.667111,238.337667 L429.001593,238.337667 C429.268489,238.337667 429.535385,238.070771 429.535385,237.803874 L429.535385,226.861128 C429.535385,225.25975 429.001593,224.192165 428.200904,223.391477 C427.400215,222.857684 426.33263,222.323892 424.731253,222.323892 Z M440.211235,219.921825 L442.880198,216.452174 L442.880198,216.185278 L440.745028,216.185278 C440.478132,216.185278 440.211235,216.452174 439.944339,216.71907 L438.076065,219.921825 C437.809169,220.188721 438.076065,220.455618 438.342962,220.455618 L439.410547,220.455618 C439.677443,220.188721 439.944339,220.188721 440.211235,219.921825 Z M440.745028,222.323892 L438.076065,222.323892 C436.741584,222.323892 435.407103,222.857684 434.606414,223.658373 C433.805725,224.459062 433.271933,225.526647 433.271933,227.128024 L433.271933,233.80043 C433.271933,235.401808 433.805725,236.469393 434.606414,237.270082 C435.407103,238.070771 436.474688,238.604563 438.076065,238.604563 L444.748472,238.604563 C445.015368,238.604563 445.282264,238.337667 445.282264,238.070771 L445.282264,237.003186 C445.282264,236.736289 445.015368,236.469393 444.748472,236.469393 L438.342962,236.469393 C436.474688,236.469393 435.673999,235.668704 435.673999,233.80043 L435.673999,231.932157 C435.673999,231.66526 435.673999,231.66526 435.940895,231.66526 L445.015368,231.66526 C445.282264,231.66526 445.549161,231.398364 445.549161,231.131468 L445.549161,227.128024 C445.549161,225.526647 445.015368,224.459062 444.214679,223.658373 C443.413991,222.857684 442.079509,222.323892 440.745028,222.323892 Z M443.147094,229.53009 C443.147094,229.796987 443.147094,229.796987 442.880198,229.796987 L435.940895,229.796987 C435.673999,229.796987 435.673999,229.796987 435.673999,229.53009 L435.673999,227.128024 C435.673999,225.25975 436.474688,224.459062 438.342962,224.459062 L440.478132,224.459062 C442.346406,224.459062 443.147094,225.25975 443.147094,227.128024 L443.147094,229.53009 Z M456.225011,222.323892 L454.890529,222.323892 C454.089841,222.323892 453.289152,222.590788 452.755359,222.857684 C452.221567,223.12458 451.687774,223.658373 451.420878,224.192165 L451.420878,222.857684 C451.420878,222.590788 451.153982,222.323892 450.887086,222.323892 L449.552604,222.323892 C449.285708,222.323892 449.018812,222.590788 449.018812,222.857684 L449.018812,238.070771 C449.018812,238.337667 449.285708,238.604563 449.552604,238.604563 L450.887086,238.604563 C451.153982,238.604563 451.420878,238.337667 451.420878,238.070771 L451.420878,227.661817 C451.420878,226.594232 451.687774,225.793543 452.221567,225.25975 C452.755359,224.725958 453.556048,224.459062 454.356737,224.459062 L456.225011,224.459062 L456.225011,222.857684 C456.758803,222.590788 456.491907,222.323892 456.225011,222.323892 Z M461.562936,216.185278 L460.228455,216.185278 C459.961558,216.185278 459.694662,216.452174 459.694662,216.71907 L459.694662,219.654929 C459.694662,219.921825 459.961558,220.188721 460.228455,220.188721 L461.562936,220.188721 C461.829832,220.188721 462.096728,219.921825 462.096728,219.654929 L462.096728,216.71907 C462.096728,216.452174 461.829832,216.185278 461.562936,216.185278 Z M461.562936,222.323892 L460.228455,222.323892 C459.961558,222.323892 459.694662,222.590788 459.694662,222.857684 L459.694662,238.070771 C459.694662,238.337667 459.961558,238.604563 460.228455,238.604563 L461.562936,238.604563 C461.829832,238.604563 462.096728,238.337667 462.096728,238.070771 L462.096728,222.857684 C462.096728,222.590788 461.829832,222.323892 461.562936,222.323892 Z M477.843607,222.323892 L470.904305,222.323892 C469.569824,222.323892 468.235342,222.857684 467.434653,223.658373 C466.633965,224.459062 466.100172,225.526647 466.100172,227.128024 L466.100172,233.80043 C466.100172,235.401808 466.633965,236.469393 467.434653,237.270082 C468.235342,238.070771 469.302927,238.604563 470.904305,238.604563 L472.505682,238.604563 C474.10706,238.604563 475.174645,238.070771 475.975334,237.003186 L475.975334,242.874903 C475.975334,243.141799 476.24223,243.408696 476.509126,243.408696 L477.843607,243.408696 C478.110504,243.408696 478.3774,243.141799 478.3774,242.874903 L478.3774,222.857684 C478.3774,222.590788 478.110504,222.323892 477.843607,222.323892 Z M475.975334,233.533534 C475.975334,234.601119 475.708437,235.134912 475.174645,235.668704 C474.640852,236.202497 473.840164,236.469393 473.039475,236.469393 L471.171201,236.469393 C469.302927,236.469393 468.502238,235.668704 468.502238,233.80043 L468.502238,227.128024 C468.502238,225.25975 469.302927,224.459062 471.171201,224.459062 L475.708437,224.459062 C475.975334,224.459062 475.975334,224.459062 475.975334,224.725958 L475.975334,233.533534 Z M494.124279,222.323892 L492.789798,222.323892 C492.522901,222.323892 492.256005,222.590788 492.256005,222.857684 L492.256005,233.80043 C492.256005,234.868015 491.989109,235.401808 491.455316,235.935601 C490.921524,236.469393 490.120835,236.736289 489.320146,236.736289 L487.451873,236.736289 C485.583599,236.736289 484.78291,235.935601 484.78291,234.067327 L484.78291,222.857684 C484.78291,222.590788 484.516014,222.323892 484.249118,222.323892 L482.914636,222.323892 C482.64774,222.323892 482.380844,222.590788 482.380844,222.857684 L482.380844,233.80043 C482.380844,235.401808 482.914636,236.469393 483.715325,237.270082 C484.516014,238.070771 485.583599,238.604563 487.184976,238.604563 L489.05325,238.604563 C490.654628,238.604563 491.722213,238.070771 492.256005,237.003186 L492.256005,238.337667 C492.256005,238.604563 492.522901,238.871459 492.789798,238.871459 L494.124279,238.871459 C494.391175,238.871459 494.658071,238.604563 494.658071,238.337667 L494.658071,222.857684 C494.658071,222.590788 494.391175,222.323892 494.124279,222.323892 Z M506.13461,222.323892 L503.465648,222.323892 C502.131167,222.323892 500.796685,222.857684 499.995997,223.658373 C499.195308,224.459062 498.661515,225.526647 498.661515,227.128024 L498.661515,233.80043 C498.661515,235.401808 499.195308,236.469393 499.995997,237.270082 C500.796685,238.070771 501.86427,238.604563 503.465648,238.604563 L510.138054,238.604563 C510.40495,238.604563 510.671847,238.337667 510.671847,238.070771 L510.671847,237.003186 C510.671847,236.736289 510.40495,236.469393 510.138054,236.469393 L503.732544,236.469393 C501.86427,236.469393 501.063582,235.668704 501.063582,233.80043 L501.063582,231.932157 C501.063582,231.66526 501.063582,231.66526 501.330478,231.66526 L510.40495,231.66526 C510.671847,231.66526 510.938743,231.398364 510.938743,231.131468 L510.938743,227.128024 C510.938743,225.526647 510.40495,224.459062 509.604262,223.658373 C508.536677,222.857684 507.469092,222.323892 506.13461,222.323892 Z M508.536677,229.53009 C508.536677,229.796987 508.536677,229.796987 508.26978,229.796987 L501.330478,229.796987 C501.063582,229.796987 501.063582,229.796987 501.063582,229.53009 L501.063582,227.128024 C501.063582,225.25975 501.86427,224.459062 503.732544,224.459062 L505.867714,224.459062 C507.735988,224.459062 508.536677,225.25975 508.536677,227.128024 L508.536677,229.53009 Z M564.317994,1.33379251 L556.311106,1.33379251 C555.243521,1.33379251 553.90904,1.86758502 552.574559,2.66827378 L543.500086,8.27309514 C542.432501,8.80688765 541.898709,9.60757641 541.898709,10.9420577 L541.898709,18.9489453 C541.898709,20.2834266 542.699397,20.8172191 544.033879,20.0165303 L553.642144,14.411709 L553.642144,62.7199311 C553.642144,64.0544124 554.442833,64.8551012 555.777314,64.8551012 L564.317994,64.8551012 C565.118683,64.8551012 565.652475,64.5882049 565.919372,64.3213087 C566.186268,64.0544124 566.453164,63.5206199 566.453164,62.7199311 L566.453164,3.20206629 C566.453164,1.86758502 565.652475,1.33379251 564.317994,1.33379251 Z M604.886225,64.8551012 L583.801421,64.8551012 C582.466939,64.8551012 581.666251,64.0544124 581.666251,62.7199311 L581.666251,55.7806285 C581.666251,54.4461472 582.466939,53.9123547 583.801421,53.9123547 L602.751055,53.9123547 C604.886225,53.9123547 606.487602,53.3785622 607.288291,52.5778734 C608.08898,51.7771847 608.622772,50.1758071 608.622772,48.0406371 L608.622772,42.1689195 L595.011063,42.1689195 C589.673138,42.1689195 585.669694,40.8344382 583.000732,37.8985794 C580.064873,35.2296169 578.730392,31.2261731 578.730392,25.888248 L578.730392,17.0806715 C578.730392,11.7427464 580.064873,7.73930263 583.000732,5.07034008 C585.936591,2.40137753 589.940034,0.8 595.011063,0.8 L604.619328,0.8 C609.957254,0.8 613.960697,2.13448127 616.62966,5.07034008 C619.565519,7.73930263 620.9,11.7427464 620.9,17.0806715 L620.9,48.5744296 C620.9,53.9123547 619.565519,57.9157985 616.62966,60.5847611 C614.227594,63.5206199 609.957254,64.8551012 604.886225,64.8551012 Z M597.146233,31.2261731 L608.622772,31.2261731 L608.622772,17.8813603 C608.622772,15.7461903 608.08898,14.1448127 607.288291,13.344124 C606.487602,12.5434352 604.886225,12.0096427 602.751055,12.0096427 L597.146233,12.0096427 C595.011063,12.0096427 593.409686,12.5434352 592.608997,13.344124 C591.808308,14.1448127 591.274516,15.7461903 591.274516,17.8813603 L591.274516,25.3544554 C591.274516,27.4896255 591.808308,28.8241068 592.608997,29.8916918 C593.676582,30.6923805 595.011063,31.2261731 597.146233,31.2261731 Z M218.687344,1.06689625 L122.871588,144.657081 L122.604692,144.657081 L122.604692,1.06689625 L96.9826517,40.0337495 L27.3227292,144.657081 L26.5220405,144.657081 L26.5220405,1.06689625 L0.9,1.06689625 L0.9,178.019113 L32.3937581,178.019113 L96.9826517,85.1392165 L96.9826517,178.019113 L128.47641,178.019113 L250.447998,1.06689625 L218.687344,1.06689625 Z M163.172923,178.019113 L194.666681,178.019113 L290.21554,34.4289281 L290.482437,34.4289281 L290.482437,178.019113 L316.371373,178.019113 L316.371373,1.33379251 L284.610719,1.33379251 L163.172923,178.019113 Z M510.671847,89.9433491 C510.671847,77.3992251 508.26978,65.9226862 503.732544,55.246836 C499.195308,44.5709858 492.789798,34.9627206 484.78291,26.955833 C476.776022,18.9489453 467.434653,12.5434352 456.491907,8.00619888 C445.549161,3.46896255 434.072622,1.06689625 421.528498,1.06689625 C409.25127,1.06689625 397.774731,3.46896255 386.831985,8.00619888 C375.889238,12.5434352 366.547869,18.9489453 358.540981,26.955833 C350.534094,34.9627206 344.128584,44.3040895 339.591347,55.246836 C335.054111,65.9226862 332.652045,77.6661214 332.652045,89.9433491 C332.652045,101.953681 335.054111,113.43022 339.591347,124.10607 C344.128584,134.78192 350.534094,144.123289 358.807878,152.130176 C366.814765,160.137064 376.423031,166.542574 387.098881,171.079811 C397.774731,175.617047 409.518166,178.019113 421.795394,178.019113 C435.140207,178.019113 447.417434,175.350151 458.893973,170.279122 L445.549161,151.062591 C438.609858,153.99845 430.869867,155.599828 422.06229,155.599828 C408.717477,155.599828 396.974042,152.130176 387.098881,145.45777 C377.223719,138.785364 369.483728,129.443995 364.145803,117.166767 C362.544425,112.629531 360.943048,108.359191 360.142359,103.555058 C358.00806,94.3355994 358.00806,84.7504101 360.142359,75.5309514 C361.209944,70.993715 362.544425,66.4564787 364.145803,62.4530349 C369.216832,50.1758071 376.956823,40.567542 387.098881,33.8951356 C397.240938,27.2227292 408.984374,23.7530779 422.329186,23.7530779 C431.670555,23.7530779 440.211235,25.6213517 447.951227,29.091003 C455.691218,32.5606543 462.363625,37.3647869 468.235342,43.5034008 C473.840164,49.6420146 478.3774,56.5813173 481.580155,64.5882049 C484.78291,72.5950926 486.384288,81.1357727 486.384288,90.2102454 C486.384288,97.9502368 485.049806,105.423332 482.380844,113.163323 C479.978777,119.568833 477.042919,124.639862 473.840164,128.910202 C471.704994,132.379854 469.036031,135.315712 466.100172,137.984675 C463.164313,140.653638 460.228455,143.055704 457.0257,145.190874 L465.833276,157.468102 L470.370512,163.873612 L479.978777,177.752217 L508.26978,177.752217 L487.985665,148.927421 C495.45876,141.18743 501.063582,132.379854 505.333922,122.237796 C508.536677,112.362635 510.671847,101.419888 510.671847,89.9433491 Z" id="Shape"></path>
        </g>
    </g>
</svg>