<?xml version="1.0" encoding="UTF-8" standalone="no"?>
<svg width="378px" height="132px" viewBox="0 0 378 132" version="1.1" xmlns="http://www.w3.org/2000/svg" xmlns:xlink="http://www.w3.org/1999/xlink">
    <!-- Generator: Sketch 39.1 (31720) - http://www.bohemiancoding.com/sketch -->
    <title>WAQ</title>
    <desc>Created with Sketch.</desc>
    <defs></defs>
    <g id="Page-1" stroke="none" stroke-width="1" fill="none" fill-rule="evenodd">
        <path d="M378,65.9468793 C378,74.4643391 376.453568,82.4743743 373.360703,90.001151 C370.273879,97.515845 365.984945,104.136508 360.512025,109.851058 L375.553495,131.186991 L354.561886,131.186991 L347.397554,120.869388 L344.069102,116.145522 L337.593416,107.04815 C339.925145,105.417148 342.172305,103.610963 344.328853,101.629596 C346.485402,99.64219 348.382197,97.370867 350.013201,94.809589 C352.35097,91.662358 354.447111,87.7539915 356.307662,83.0844898 C358.295069,77.4967954 359.279712,71.836612 359.279712,66.1160203 C359.279712,59.3624614 358.113847,53.0015509 355.788157,47.0514099 C353.456428,41.1073108 350.188382,35.8881019 345.99006,31.399825 C341.797779,26.9115465 336.808118,23.353543 331.0392,20.7318577 C325.258202,18.1041306 318.939577,16.7993284 312.053119,16.7993284 C302.146287,16.7993284 293.459688,19.3002001 285.99332,24.3140228 C278.526951,29.3278469 272.872808,36.3834442 269.02485,45.4808146 C267.744211,48.5193128 266.723323,51.7450746 265.962189,55.1943423 C265.207096,58.6315293 264.826528,62.159328 264.826528,65.7716979 C264.826528,69.1545185 265.207096,72.5615021 265.962189,76.004731 C266.723323,79.4479584 267.744211,82.7945337 269.02485,86.0625812 C272.987583,95.039137 278.671929,102.004124 286.083931,106.96358 C293.483851,111.923036 302.146287,114.399743 312.053119,114.399743 C318.583172,114.399743 324.418537,113.294287 329.553176,111.071291 L339.520415,125.412033 C331.123772,129.266033 321.972033,131.186991 312.053119,131.186991 C302.961789,131.186991 294.420168,129.465377 286.434294,126.02819 C278.442382,122.597044 271.447191,117.897339 265.436643,111.947199 C259.432138,105.99706 254.708269,99.062278 251.271082,91.130772 C247.833895,83.2053063 246.112282,74.7482548 246.112282,65.7716979 C246.112282,56.5595529 247.833895,47.9575233 251.271082,39.9716496 C254.708269,31.9797371 259.407975,25.0147499 265.352074,19.0646104 C271.302213,13.1205114 278.297404,8.4510112 286.343683,5.0742309 C294.389965,1.6914103 302.961789,0 312.053119,0 C321.265266,0 329.897499,1.7216137 337.943779,5.1588022 C345.99006,8.6080699 352.985249,13.2896524 358.94143,19.2458322 C364.885529,25.1899313 369.542948,32.1609588 372.931809,40.1468325 C376.31463,48.1327047 378,56.7286939 378,65.9468793 L378,65.9468793 Z M210.429565,0.1872637 L120.343842,131.186991 L143.781957,131.186991 L214.627886,24.8335281 L214.803068,24.8335281 L214.803068,131.186991 L233.867679,131.186991 L233.867679,0.1872637 L210.429565,0.1872637 L210.429565,0.1872637 Z M161.451155,0 L90.436085,106.528646 L90.260904,106.528646 L90.260904,0 L71.1962916,28.8627079 L19.5901562,106.528646 L19.0646104,106.528646 L19.0646104,0 L0,0 L0,131.186991 L23.4381142,131.186991 L71.1962916,62.2741026 L71.1962916,131.186991 L94.628365,131.186991 L185.070491,0 L161.451155,0 L161.451155,0 Z" id="WAQ" fill="#FFF"></path>
    </g>
</svg>
